<svg xmlns="http://www.w3.org/2000/svg" width="26" height="26" viewBox="0 0 26 26">
  <path id="youtube-square-brands" d="M10.841,41.872l5.525,3.14-5.525,3.14ZM26,34.786V55.214A2.786,2.786,0,0,1,23.214,58H2.786A2.786,2.786,0,0,1,0,55.214V34.786A2.786,2.786,0,0,1,2.786,32H23.214A2.786,2.786,0,0,1,26,34.786ZM23.563,45.017a27.887,27.887,0,0,0-.441-5.119,2.649,2.649,0,0,0-1.869-1.88C19.61,37.571,13,37.571,13,37.571s-6.61,0-8.253.447A2.649,2.649,0,0,0,2.879,39.9a29.923,29.923,0,0,0,0,10.237,2.611,2.611,0,0,0,1.869,1.851c1.642.441,8.253.441,8.253.441s6.61,0,8.253-.447a2.611,2.611,0,0,0,1.869-1.851,27.8,27.8,0,0,0,.441-5.113Z" transform="translate(0 -32)" fill="#fff"/>
</svg>
