<svg id="Layer_2" data-name="Layer 2" xmlns="http://www.w3.org/2000/svg" width="184.194" height="54.647" viewBox="0 0 184.194 54.647">
  <g id="FC_Trace_Layer1" data-name="FC Trace Layer1" transform="translate(0 0)">
    <path id="Path_151" data-name="Path 151" d="M280.275-.017a28.915,28.915,0,0,0-3.7.326,35.292,35.292,0,0,0-4.781,1.3A11.46,11.46,0,0,0,269.632,2.7a14.966,14.966,0,0,0-1.956,1.412,10.981,10.981,0,0,0-1.739,1.739,22.3,22.3,0,0,0-2.282,3.7,17.025,17.025,0,0,0-1.2,3.7,26.5,26.5,0,0,0-.543,4.454,33.5,33.5,0,0,0,.218,3.586s3.334.192,5,.11a23.028,23.028,0,0,0,3.7-.545,13.153,13.153,0,0,0,2.825-.869,23.813,23.813,0,0,0,3.913-2.282,9.707,9.707,0,0,0,2.064-2.064,21.37,21.37,0,0,0,2.282-3.8,21.19,21.19,0,0,0,1.2-3.8,15.175,15.175,0,0,0,.435-2.935c.068-1.665-.11-5-.11-5S280.817-.045,280.275-.017Z" transform="translate(-217.037 0.021)" fill="#fff"/>
    <path id="Path_152" data-name="Path 152" d="M172.536,14.447l-.651.108a23.619,23.619,0,0,0-.11,2.717,12.088,12.088,0,0,0,.541,2.935,10.348,10.348,0,0,0,1.413,2.825,8.157,8.157,0,0,0,2.282,2.174,11.213,11.213,0,0,0,3.7,1.413,27.192,27.192,0,0,0,4.564.108,23.351,23.351,0,0,0,0-3.255A12.746,12.746,0,0,0,183.4,20.1a13.075,13.075,0,0,0-1.739-2.717,4.228,4.228,0,0,0-1.084-.99,11.278,11.278,0,0,0-2.5-1.3,17.843,17.843,0,0,0-3.478-.653,16.6,16.6,0,0,0-2.066.007Z" transform="translate(-142.336 -11.939)" fill="#fff"/>
    <path id="Path_153" data-name="Path 153" d="M583.062,140.41a10.2,10.2,0,0,0-5.434,2.282A9.968,9.968,0,0,0,576,144.321a10.667,10.667,0,0,0-1.305,1.956,11.745,11.745,0,0,0-1.086,2.825,14.9,14.9,0,0,0-.326,4.021,14.09,14.09,0,0,0,.869,3.913,11.135,11.135,0,0,0,1.634,2.825,12.028,12.028,0,0,0,2.172,2.174,8.639,8.639,0,0,0,2.282,1.3,11.4,11.4,0,0,0,3.255.761,13.816,13.816,0,0,0,3.694-.326,9.251,9.251,0,0,0,2.5-.978,9.1,9.1,0,0,0,2.066-1.521,12.1,12.1,0,0,0,1.955-2.5,16.187,16.187,0,0,0,.978-2.607h-5a11.113,11.113,0,0,1-.978,1.741,4.284,4.284,0,0,1-1.3,1.086,7.7,7.7,0,0,1-2.172.761,4.932,4.932,0,0,1-1.849,0,6.95,6.95,0,0,1-2.056-.761,4.7,4.7,0,0,1-1.413-1.2,10.7,10.7,0,0,1-1.521-2.607,7.5,7.5,0,0,1-.435-2.4,11.121,11.121,0,0,1,.218-2.717,8.3,8.3,0,0,1,.761-1.956,6.338,6.338,0,0,1,.87-1.3,5.61,5.61,0,0,1,1.3-1.2,7.01,7.01,0,0,1,2.174-.869,6.9,6.9,0,0,1,2.172,0,3.628,3.628,0,0,1,1.413.435,9.234,9.234,0,0,1,2.064,1.629,6,6,0,0,1,.761,1.413h5a25.669,25.669,0,0,0-1.1-2.82,8.914,8.914,0,0,0-1.3-1.739,7.559,7.559,0,0,0-1.3-1.2,10.982,10.982,0,0,0-2.284-1.3,13.285,13.285,0,0,0-3.043-.761A9.7,9.7,0,0,0,583.062,140.41Z" transform="translate(-475.049 -116.274)" fill="#fff"/>
    <path id="Path_154" data-name="Path 154" d="M302.628,143.963l-.108,22.713H307.3v-7.821c.149-.833,1.108-1.283,1.739-1.847.081-.072.326,0,.326,0l6.63,9.673h6.085l-9.563-13.042,9.237-9.676s-4.478-.017-6.412,0c-2.611,2.861-5.177,5.686-7.824,8.477-.05.051-.218,0-.218,0v-8.477Z" transform="translate(-250.693 -119.29)" fill="#fff"/>
    <path id="Path_155" data-name="Path 155" d="M429.39,144.03v22.713h4.674V144.03H429.39Z" transform="translate(-355.828 -119.352)" fill="#fff"/>
    <path id="Path_156" data-name="Path 156" d="M474.43,144.03v4.454H480.3v18.259h4.674V148.484h5.977V144.03H474.43Z" transform="translate(-393.152 -119.352)" fill="#fff"/>
    <path id="Path_157" data-name="Path 157" d="M711.78,144.03l-.11,22.713h4.783V157.4h9.02v9.347h4.672V144.03h-4.672v8.91h-9.02v-8.91H711.78Z" transform="translate(-589.748 -119.352)" fill="#fff"/>
    <path id="Path_158" data-name="Path 158" d="M844.25,144.03v22.713H861.2V162.4h-12.28v-5.217h10.216l.108-4.454H848.924v-4.24h11.954l.108-4.454H844.25Z" transform="translate(-699.615 -119.352)" fill="#fff"/>
    <path id="Path_159" data-name="Path 159" d="M965.41,144.03v22.713h4.674v-15h.218l8.369,14.888,5.542.11V144.03h-4.674l-.108,15-8.586-15H965.41Z" transform="translate(-800.018 -119.352)" fill="#fff"/>
    <path id="Path_160" data-name="Path 160" d="M41.949,95.917l-.11-22.169H34.13L20.649,95.483l-7.173.108,6.738-7.709A24.962,24.962,0,0,0,22.821,84.3a16.529,16.529,0,0,0,1.521-3.7,13.909,13.909,0,0,0,.435-3.255,12.693,12.693,0,0,0-.218-2.607,7.617,7.617,0,0,0-.543-1.849,13.812,13.812,0,0,0-1.413-2.5,9.808,9.808,0,0,0-1.847-1.956,12.015,12.015,0,0,0-3.043-1.847,20.524,20.524,0,0,0-4.13-.869,5.723,5.723,0,0,0-1.412,0,12.437,12.437,0,0,0-2.282.326,14.774,14.774,0,0,0-3.152,1.2,13.029,13.029,0,0,0-2.4,1.847,8.213,8.213,0,0,0-1.521,1.739A14.044,14.044,0,0,0,1.2,74.3a23.039,23.039,0,0,0-.435,3.913h6.63A16.039,16.039,0,0,1,7.828,75.6a5.715,5.715,0,0,1,.978-1.629,2.626,2.626,0,0,1,.87-.761,8.114,8.114,0,0,1,2.172-.762,5.9,5.9,0,0,1,2.066,0,6.024,6.024,0,0,1,2.172.762A4.7,4.7,0,0,1,17.5,74.732a3.44,3.44,0,0,1,.54,1.621,12.832,12.832,0,0,1-.326,3.478,6.286,6.286,0,0,1-.978,2.064,60.048,60.048,0,0,1-3.7,4.781L0,101.786H35.646l.108,7.281h6.085l.11-7.281H45.97V95.917Zm-6.3.024H27.484l4.129-6.853L35.653,83Z" transform="translate(0 -54.42)" fill="#fff"/>
  </g>
</svg>
