<svg id="bunq-1" xmlns="http://www.w3.org/2000/svg" width="184.194" height="76.223" viewBox="0 0 184.194 76.223">
  <path id="Path_161" data-name="Path 161" d="M165.8,212.782a19.056,19.056,0,0,1-26.994-17.325V173.23h8.468v22.227c0,6.46,4.748,11.627,10.587,11.627a10.161,10.161,0,0,0,7.939-3.947Z" transform="translate(-89.059 -155.234)" fill="#fff" fill-rule="evenodd"/>
  <path id="Path_162" data-name="Path 162" d="M70.258,145.37v21.174a21.187,21.187,0,0,1,22.234-1.977v9.967a13.016,13.016,0,0,0-10.058-4.819,13.773,13.773,0,0,0,0,27.524,13.016,13.016,0,0,0,10.058-4.819v9.967a21.174,21.174,0,0,1-22.88-2.487L69.2,203.59H61.79V184.534h.032c0-.349-.032-.7-.032-1.053V145.37Z" transform="translate(-61.79 -145.37)" fill="#fff" fill-rule="evenodd"/>
  <path id="Path_163" data-name="Path 163" d="M85.549,172.4a21.174,21.174,0,1,1,0,40.7V205.34a12.667,12.667,0,0,0,5.3,1.15,13.773,13.773,0,0,0,0-27.524,12.767,12.767,0,0,0-5.3,1.151Z" transform="translate(-70.201 -154.645)" fill="#fff" fill-rule="evenodd"/>
  <path id="Path_164" data-name="Path 164" d="M109.32,175.09a21.181,21.181,0,0,1,0,37.821v-9.967a14.211,14.211,0,0,0,0-17.887Z" transform="translate(-78.618 -155.892)" fill="#fff" fill-rule="evenodd"/>
  <path id="Path_165" data-name="Path 165" d="M156.829,203.771a10.077,10.077,0,0,0,7.409,3.333c5.846,0,10.587-5.219,10.587-11.627V173.23h8.468v22.227a19.056,19.056,0,0,1-26.484,17.557Z" transform="translate(-95.431 -155.234)" fill="#fff" fill-rule="evenodd"/>
  <path id="Path_166" data-name="Path 166" d="M180.6,203.157a12.273,12.273,0,0,0,2.648-7.7V173.23h8.468v22.227A19.061,19.061,0,0,1,180.6,212.781Z" transform="translate(-103.854 -155.234)" fill="#fff" fill-rule="evenodd"/>
  <path id="Path_167" data-name="Path 167" d="M237.385,182.327a10.077,10.077,0,0,0-7.409-3.333c-5.814,0-10.587,5.219-10.587,11.627v22.247H210.92V190.641A19.056,19.056,0,0,1,237.4,173.084Z" transform="translate(-114.589 -154.648)" fill="#fff" fill-rule="evenodd"/>
  <path id="Path_168" data-name="Path 168" d="M228.13,173.32a19.056,19.056,0,0,1,26.994,17.325v22.227h-8.468V190.645c0-6.46-4.748-11.627-10.587-11.627a10.161,10.161,0,0,0-7.939,3.947Z" transform="translate(-120.682 -154.652)" fill="#fff" fill-rule="evenodd"/>
  <path id="Path_169" data-name="Path 169" d="M251.89,173.91a19.075,19.075,0,0,1,11.627,17.557v22.227h-8.449V191.467a12.215,12.215,0,0,0-3.178-8.313Z" transform="translate(-129.094 -155.474)" fill="#fff" fill-rule="evenodd"/>
  <path id="Path_170" data-name="Path 170" d="M308.363,213.121a21.174,21.174,0,1,1,0-40.7v7.751a12.764,12.764,0,0,0-5.3-1.15,13.773,13.773,0,0,0,0,27.524,12.667,12.667,0,0,0,5.3-1.15Z" transform="translate(-139.517 -154.656)" fill="#fff" fill-rule="evenodd"/>
  <path id="Path_171" data-name="Path 171" d="M299.41,173.851a21.174,21.174,0,0,1,22.88,2.487l.413-3.688h7.409v58.226h-8.468V209.7a21.187,21.187,0,0,1-22.234,1.977V201.7a13.029,13.029,0,0,0,10.07,4.819,13.773,13.773,0,0,0,0-27.524,13.029,13.029,0,0,0-10.058,4.819Z" transform="translate(-145.918 -154.653)" fill="#fff" fill-rule="evenodd"/>
  <path id="Path_172" data-name="Path 172" d="M323.18,172.85a21.1,21.1,0,0,1,7.525,3.934l.413-3.688h7.409v58.226h-8.468V210.141a21.078,21.078,0,0,1-6.879,3.424v-7.751a13.985,13.985,0,0,0,0-25.192Z" transform="translate(-154.334 -155.099)" fill="#fff" fill-rule="evenodd"/>
</svg>
