<svg xmlns="http://www.w3.org/2000/svg" width="184.506" height="60.416" viewBox="0 0 184.506 60.416">
  <path id="cola" d="M155.176,52.506s-.571.506-.571.506c-.811.725-1.646,1.5-2.654,1.114a1.011,1.011,0,0,1-.521-.76c-.046-2.076.889-4,1.8-5.873l.232-.49c2.608-4.355,5.639-9.486,10.092-13.047a2.508,2.508,0,0,1,2.424-.641,1.259,1.259,0,0,1,.428.827,1.388,1.388,0,0,1-.142.456c-1.243,2.009-2.428,4.119-3.579,6.144a85.238,85.238,0,0,1-7.5,11.765ZM131.052,42.244a5,5,0,0,1-3.759-3.679c-.493-2.4,1.158-4.271,2.755-5.216a2.763,2.763,0,0,1,2.476-.457,2.5,2.5,0,0,1,.894,2.228,13.519,13.519,0,0,1-.139,1.655l-.014.119a22.476,22.476,0,0,1-2.212,5.351ZM119.563,53.57a2.659,2.659,0,0,1-.419-1.493c-.059-3.31,3.5-9.236,6.015-12.465h.006a9.776,9.776,0,0,0,4.878,4.414c-1.788,3.984-7.922,12.515-10.48,9.545Zm43.409.588c-.6.4-1.432.094-1.119-.834a48.259,48.259,0,0,1,3.875-7.179l8.625-15.3h-5.908c-.281.461-.881,1.521-.881,1.521a8.108,8.108,0,0,0-1.427-1.686c-1.443-.912-3.561-.481-5.022.346-6.351,3.714-10.986,11.052-14.641,16.774,0,0-3.847,6.361-5.983,6.834-1.667.135-1.5-2.111-1.423-2.634a42.867,42.867,0,0,1,3.65-10.634,81.7,81.7,0,0,0,9.75-7.967c6.9-6.6,12.725-14.078,13.576-15.749a13.463,13.463,0,0,1-2.008.219c-5.312,7.41-16.182,18.18-19.478,19.782,1.46-3.511,10.892-20.272,18.919-28.289l1.263-1.216c1.953-1.907,3.977-3.865,5.554-4.186.167-.017.381,0,.566.389a7.288,7.288,0,0,1-1.117,3.831l-.889,1.823a20.6,20.6,0,0,0,2.086-.507c.959-1.805,2.022-3.831,1.63-6.244a1.792,1.792,0,0,0-1.427-1.5c-2.394-.456-5,1.316-7.1,2.751l-.085.05c-10.794,8.456-19.908,20.644-27.877,37.286-.578.438-2.809.962-3.188.709a27.083,27.083,0,0,0,2.274-6.161,16.383,16.383,0,0,0,.166-2.042,4.3,4.3,0,0,0-1.65-3.764,5.7,5.7,0,0,0-4.683.169c-5.7,2.363-9.953,8.2-13.025,13.013-1.652,3.056-3.3,6.329-3.756,10.077-.321,2.936.333,4.827,2,5.773,1.717.877,3.878-.035,4.727-.473,5.771-3.038,9.8-9.131,12.981-14.7a18.613,18.613,0,0,0,3.174-.4.08.08,0,0,1,.054.018c-.075.252-.753,2.278-.753,2.278-2.014,5.907-2.946,9.925-1.043,12.3,2.719,3.359,7.22-.118,10.882-4.71-.786,5.5,2.066,6.364,4.24,5.942,2.5-.675,5.28-3.342,6.571-4.709-.415,1.6-.3,4.473,1.97,4.76,1.557.288,2.722-.559,4.07-1.285,4.836-2.633,10.626-11.408,12.129-13.945h-1.971c-2.137,3.229-4.855,7.463-8.276,9.473ZM88.467,21.391H94l3.124-5.074H91.59ZM176.884,7.911c-4.22,2.4-8.6,3.95-13.892,3.41-1.468,1.655-2.9,3.359-4.214,5.114,7.433,1.89,15.313-2.312,19.708-6.312a31.026,31.026,0,0,0,7.033-9.114,36.939,36.939,0,0,1-8.636,6.9ZM130.342,6.629c-.88,10.094-8.726,16.019-10.667,16.49-1.176.236-3.184-.287-1.392-4.523A28.173,28.173,0,0,1,130.262,5.566a2.582,2.582,0,0,1,.08,1.063ZM115.054,32.065a3.431,3.431,0,0,0-3.319-1.907c-4.618.422-9.135,4.22-11.507,9.672a27.766,27.766,0,0,0-2.369,8.794,24.328,24.328,0,0,1,7.689-5.856,16,16,0,0,1,2.759-6.667c.873-1.3,2.619-3.393,4.58-2.836,1.713.574,1.111,5.317-1.166,9.907a31.83,31.83,0,0,1-6.872,9.082c-2.307,1.958-5.719,4.321-8.705,2.5-1.881-1.114-2.84-3.443-2.637-6.448.9-8.524,4.779-15.782,10.331-24.052,5.725-7.68,12.036-15.562,20.538-19.766a5.738,5.738,0,0,1,4.728-.54s-7.981,4.389-11.785,12.508c-.968,2.06-2.314,4.844-.958,7.308a2.85,2.85,0,0,0,2.978,1.316c4.663-1.08,7.676-5.435,10.138-9.418,1.427-3.021,2.7-6.026,2.7-9.368,0-.4-.021-.945-.055-1.35,2.228-1.181,6.8.911,6.8.911,3.57,1.182,11.172,7.006,13.736,8.119,1.251-1.451,3.306-3.645,4.463-4.743L155.436,8.2c-2.682-1.637-5.518-3.19-8.308-4.726a16.619,16.619,0,0,0-14.122-1.3c-1.032.371-1.975.692-1.975.692-1.948-2.127-5.144-1.925-7.5-1.35-8.468,2.43-16.329,8.355-24.757,18.634-6.2,8.051-10.041,15.006-12.089,21.875-1.579,4.625-2.059,11.427,1.8,15.461,3.277,3.425,7.622,2.683,10.691,1.452,6.649-3.275,12.624-10.331,15.6-18.449.718-2.413,1.516-5.823.279-8.423Zm-73.7-7.831c-.011.034-1.129,2.6-1.129,2.6-.162.135-.417.068-.71,0l-.5-.085a4.506,4.506,0,0,1-3.131-2.785c-.506-2.431,1.571-4.338,2.486-5.03.878-.608,2.243-.929,3.035-.3a3.187,3.187,0,0,1,.674,2.127,11.553,11.553,0,0,1-.722,3.477Zm-2.4,4.877s-.051.152-.076.2c-.006,0-2.542,4.135-2.542,4.135-1.53,2.043-3.44,4.609-5.828,5.841-.708.236-1.686.389-2.185-.235-1.057-1.266-.512-3.021-.07-4.439l.157-.506a42.012,42.012,0,0,1,5.242-9.3.257.257,0,0,1,.1-.033.145.145,0,0,1,.016.051,8.413,8.413,0,0,0,5.26,3.966c.01,0,.021.017.021.051a.831.831,0,0,1-.1.27Zm31.713-2.717a80.809,80.809,0,0,1,5.239-6.481c2.706-2.381,3.788-1.333,3.882-.591-2.526,4.523-5.507,9.705-8.309,14.364.006-.017-.877,1.333-.877,1.333a12.925,12.925,0,0,1-4.517,4.641A1.312,1.312,0,0,1,65,39.542a1.151,1.151,0,0,1-.491-1.114c.122-1.451,1.6-5.889,6.159-12.034ZM42.563,16.132c-3.5-2.3-10.531,2.093-16.163,9.62-5.151,6.752-7.375,14.6-4.954,18.229,3.6,4.27,10.284-1.941,13.127-5.266l.367-.389a41.441,41.441,0,0,0,4.872-6.971s1.328-2.194,1.392-2.3c.821-.151,1.81-.388,2.924-.709-.016.05-4.264,7.19-3.83,10.735.135,1.081.032,5.031,3.888,6.229,5.139.861,9.244-3.123,12.864-6.667,0,0,.617-.59.966-.927-.088.354-.2.825-.2.825-1.5,5.233.524,6.33,1.792,6.736,3.834,1.115,8.415-4.456,8.43-4.456-.119,1.755-.466,3.206,1.384,4.371,1.746.625,3.513-.328,4.856-1.222,4.838-3.41,8.735-8.746,11.882-13.358H84.147c-.024,0-4.955,7.147-8.157,8.7,0,0-.588.3-.923.062-.416-.355-.252-1.092,0-1.614.016-.034,12.363-21.448,12.363-21.448h-5.83s-.637,1.03-.689,1.1c-.039-.034-.133-.211-.2-.3-3.612-5-11.791,2.689-17.949,11.6a58.547,58.547,0,0,1-8.519,10.07s-4.636,4.25-6.618,1.2a5.894,5.894,0,0,1-.093-4.391c2.307-6.566,6.281-12.524,10.8-16.12,1.277-1,2.664-1.283,3.353-.861a1.463,1.463,0,0,1,.347,2.009,3.25,3.25,0,0,0-2.583,1C58.11,23.036,57.64,24.4,58.07,25.686c2.088,2.971,6.251-2.9,6.049-6.482a3.843,3.843,0,0,0-1.778-3.089,6.13,6.13,0,0,0-5.348.051c-2.012.759-5.2,3.409-7.056,5.469-2.34,2.583-6.354,5.452-7.61,5.131.411-1.1,3.8-8.035.235-10.633Zm29.3,37.556c-6.866-4.423-16.183-5.2-31.209-1.03-16.019,3.764-21.36,6.178-28.375,1.333-2.695-2.38-3.661-6.211-2.939-11.73,1.673-9,6.2-17.656,14.227-27.259,4.483-5,8.642-9.284,14.133-11,4.209-1.08,3.815,2.227,3.306,2.7a4.073,4.073,0,0,0-2.138.54A5.537,5.537,0,0,0,36.666,11c-.12,2.92,2.9,2.312,4.2.709,1.4-1.807,3.481-5.266,1.848-8.49a4.8,4.8,0,0,0-3.336-2.211c-5.028-.287-9.712,2.11-14.034,4.76A61.322,61.322,0,0,0,4.061,31.392C1.594,37.4-.637,46.007,2.707,53.013c2.587,4.861,7.957,7.443,14.364,6.9a113.223,113.223,0,0,0,13.582-2.8c3.654-.878,22.36-7.309,28.507,3.883a8.3,8.3,0,0,1,7.152-4.052c4.2-.387,10.258,1.216,14.669,4.456-1.47-2.21-5.637-5.468-9.113-7.713Z" transform="translate(-1.014 -0.986)" fill="#fff"/>
</svg>
