<svg id="layer1" xmlns="http://www.w3.org/2000/svg" width="184.506" height="79.539" viewBox="0 0 184.506 79.539">
  <path id="path30" d="M487.186,222.052c-1.534,8.552-.306,15.187,3.566,19.827,3.643,4.333,9.588,6.634,17.258,6.634a49.559,49.559,0,0,0,13.537-2.033l1.151-.345,1.84-10.432-3.068.959a21.2,21.2,0,0,1-6.865,1c-4.526,0-7.9-1.3-10.087-3.912-2.492-2.992-3.413-7.632-2.492-12.809.881-4.871,3.528-10.048,8.436-10.048,1.917,0,2.454.652,2.647.882.536.652,1.074,2.11.5,5.446l-.421,2.262h14.688l.268-1.61c.959-5.561.153-9.971-2.455-13.039-2.646-3.183-7.094-4.794-13.192-4.794-13.424,0-22.9,8.207-25.312,22.014m81-16.529c-3.068-3.644-7.747-5.484-13.844-5.484-13.193,0-22.282,8.705-24.967,23.893-1.457,8.361-.345,14.765,3.26,19.06,3.068,3.682,7.708,5.523,13.844,5.523,13.154,0,22.244-8.705,24.928-23.892,1.5-8.361.383-14.765-3.222-19.1M556.869,223.93c-1.726,9.741-4.372,13.73-9.166,13.73a4.025,4.025,0,0,1-3.3-1.189c-1.918-2.263-1.189-7.862-.459-11.85,1.725-9.78,4.371-13.73,9.165-13.73a4.076,4.076,0,0,1,3.3,1.189c1.879,2.263,1.151,7.862.46,11.85m55.762-18.408c-3.068-3.644-7.709-5.484-13.845-5.484-13.154,0-22.243,8.705-24.929,23.893-1.5,8.361-.383,14.765,3.221,19.06,3.069,3.682,7.709,5.523,13.845,5.523,13.155,0,22.282-8.705,24.928-23.892,1.5-8.361.422-14.765-3.221-19.1M601.318,223.93c-1.726,9.741-4.372,13.73-9.166,13.73a4.077,4.077,0,0,1-3.3-1.189c-1.879-2.263-1.15-7.862-.461-11.85,1.726-9.78,4.373-13.73,9.166-13.73a4.076,4.076,0,0,1,3.3,1.189c1.918,2.263,1.189,7.862.461,11.851M657,204.257c-2.34-2.8-5.791-4.219-10.24-4.219a16.062,16.062,0,0,0-9.243,3.375c0-.038.422-2.416.422-2.416h-14l-11.582,65.7h14s2.761-15.609,3.8-21.516a12.125,12.125,0,0,0,8.706,3.337c10.355,0,18.141-8.936,20.786-23.892,1.649-9.473.767-16.338-2.646-20.364M645.114,223.93c-1.648,9.242-4.026,13-8.246,13a2.767,2.767,0,0,1-2.378-.959c-.843-1-2.032-3.8-.69-11.352,1.112-6.29,4.142-13.04,8.207-13.04a3.067,3.067,0,0,1,2.531,1c.959,1.151,1.841,4.065.576,11.352" transform="translate(-475.949 -200.038)" fill="#fff"/>
  <path id="path34" d="M511.638,459.986c-31.6,2.34-56.759,9.894-76.433,20.555l-.346,4.832c19.559-10.546,45.331-15.877,76.778-18.178a246.394,246.394,0,0,1,55.187,2.569l2.109-9.932c-4.257-.461-28.609-1.918-57.3.153" transform="translate(-434.86 -405.835)" fill="#fff"/>
</svg>
