<svg xmlns="http://www.w3.org/2000/svg" width="184.506" height="76.34" viewBox="0 0 184.506 76.34">
  <path id="disney" d="M163.465,37.259c-3.119.72-11.356,1.12-11.356,1.12L151.1,41.63a47.469,47.469,0,0,1,7.064-.053,1.024,1.024,0,0,1,1.066,1.066,18.039,18.039,0,0,1-.08,2.4,1.167,1.167,0,0,1-1.066.906c-1.146.187-8.877.533-8.877.533l-1.253,4.212s-.453.96.586.693c.96-.267,9.063-1.813,10.129-1.6a2.916,2.916,0,0,1,2.026,3.2c-.427,1.679-8.53,6.851-13.435,6.5,0,0-2.586.16-4.745-3.332-2.079-3.332.72-9.6.72-9.6s-1.253-2.932-.32-4a4.037,4.037,0,0,1,2.133-.586l2-4.105a4.653,4.653,0,0,1-3.6-1.519c-1.226-1.6-1.333-2.292-.373-2.719,1.013-.533,10.4-2.212,16.847-2,0,0,2.266-.267,4.265,3.652,0,0,.906,1.6-.693,1.973M139.154,53.039c-.8,1.946-3.012,4-5.678,2.746-2.719-1.28-7.011-10.023-7.011-10.023s-1.6-3.252-1.919-3.145c0,0-.347-.64-.533,2.932-.267,3.545.053,10.449-1.413,11.542a2.583,2.583,0,0,1-3.839-.64c-.746-1.253-1.066-4.265-.64-9.516.48-5.251,1.679-10.849,3.2-12.582a2.038,2.038,0,0,1,3.359,0s2.053,1.866,5.518,7.384l.586,1.013S133.93,48,134.25,47.975c0,0,.267.267.48.053.32-.08.213-1.786.213-1.786a89.966,89.966,0,0,0-3.519-15.274,4.766,4.766,0,0,1-.133-2.4c.267-1.066,1.413-.533,1.413-.533s4.425,2.133,6.584,9.33a26.5,26.5,0,0,1-.107,15.674M117.456,34.566c-.427.746-.613,1.786-2.452,2.079,0,0-17.86,1.253-18.74,2.506,0,0-.586.746.373.933,1.013.213,5.065.746,6.984.853,2.079,0,9.063.053,11.622,3.2,0,0,1.466,1.493,1.413,4.878-.053,3.465-.666,4.692-2.026,5.944-1.413,1.173-13.515,6.611-21.325-1.706,0,0-3.572-4,1.253-7.037,0,0,3.465-2.133,12.342.347,0,0,2.666.96,2.559,1.946-.16,1.066-2.213,2.133-5.2,2.079a10.261,10.261,0,0,1-4.585-1.226c.4.133-3.119-1.706-4.212-.453-1.066,1.173-.8,1.866.267,2.586,2.666,1.546,13.142.986,16.26-2.506,0,0,1.253-1.413-.64-2.559-1.866-1.066-7.3-1.733-9.41-1.813-2-.107-9.49,0-10.609-1.946,0,0-1.066-1.386.107-5.171,1.226-4,9.943-5.545,13.728-5.864,0,0,10.4-.427,12.342,1.706a1.4,1.4,0,0,1-.053,1.2M87.974,58c-1.253.933-3.919.533-4.692-.533-.746-.933-1.013-4.612-.88-10.4.187-5.918.267-13.168,1.6-14.341,1.333-1.146,2.133-.133,2.666.64A6.139,6.139,0,0,1,88,36.885c.16,1.866.613,11.462.613,11.462S89.2,57.091,88,58M90.64,26.809c-3.679,1.253-6.184.853-8.317-.08-.933,1.679-1.493,2.186-2.186,2.292-1.066.107-2-1.6-2.133-2.133a2.776,2.776,0,0,1-.107-2.746,6.212,6.212,0,0,1-1.866-6.051c.48-1.973,4-9.383,14.661-10.263,0,0,5.225-.373,6.131,2.4h.16s5.065,0,4.958,4.532c0,4.532-5.6,10.183-11.3,12.129m4.745-12.982c-3.359.533-8.53,5.011-11.009,8.717,3.812.693,10.476.427,13.462-5.6,0,0,1.413-3.785-2.452-3.119M80.643,16.84c-1.066,1.733-1.12,2.772-.613,3.465a26.432,26.432,0,0,1,6.8-7.091,7.877,7.877,0,0,0-6.184,3.625m90.819,40.971a79.763,79.763,0,0,0-5.731,21.272s-.267,1.786-1.733,1.2c-1.466-.533-3.865-2.932-4.4-6.318-.533-4.425,1.439-11.889,5.465-20.472a11.822,11.822,0,0,1-1.333-8.53s1.066-7.2,8.264-13.7c0,0,.853-.72,1.333-.48.586.267.347,2.559-.133,3.732-.426,1.12-3.625,6.664-3.625,6.664s-2,3.785-1.439,6.744c3.785-5.811,12.4-17.593,17.727-13.861,3.385,2.4,3.385,10.13.853,14.608-2,3.545-7.65,10.876-15.194,9.17M182.6,39.711a51.729,51.729,0,0,0-8.264,11.676,13.645,13.645,0,0,0,6.664-2.772c1.413-1.253,4.665-4.638,4.158-9.117,0,0-.32-2.346-2.559.213M63.183,60.956a43.5,43.5,0,0,1-23.191.267c-.133,1.973-.347,2.8-.666,3.119-.373.427-3.465,2.186-5.171-.32a14.316,14.316,0,0,1-1.333-5.331C21.892,53.732,16.828,46.428,16.668,46.162a4.409,4.409,0,0,1-.267-6.051c2.319-2.879,10-5.784,16.874-6.931.267-5.864.906-10.4,1.733-12.4.986-2.4,2.239-.267,3.359,1.333.906,1.2,1.466,6.344,1.519,10.449a44.487,44.487,0,0,1,12.182,1.066C58.625,34.753,63,38.112,62.65,41.9a6.081,6.081,0,0,1-5.065,5.385,9.276,9.276,0,0,1-3.465-.88c-1.493-.693-.133-1.333,1.6-2.079,1.919-.933,1.493-1.866,1.493-1.866-.693-2.133-9.2-3.545-17.647-3.545,0,4.665.187,12.4.32,16.9a47.7,47.7,0,0,0,10.343.88s21.592-.613,22.2-14.395c.666-13.808-21.592-27.03-37.986-31.188C18.08,6.817,8.8,9.856,8,10.255c-.88.427-.08.586-.08.586a16.745,16.745,0,0,1,2.479.666c1.6.533.32,1.333.32,1.333-2.8.96-5.918.4-6.531-.88-.613-1.253.4-2.4,1.6-4.078C6.911,6.15,8.191,6.2,8.191,6.2c20.259-7.064,45,5.6,45,5.6,23.138,11.676,27.083,25.4,26.657,30.735-.373,5.251-2.4,14.128-16.66,18.446M18.667,41.9a1.626,1.626,0,0,0-.693,2.772A36.913,36.913,0,0,0,32.635,54c.586-8,.533-10.849.533-14.874-7.837.533-12.369,1.813-14.5,2.772" transform="translate(-4.008 -4.061)" fill="#fff"/>
</svg>
