<svg id="kilroy" xmlns="http://www.w3.org/2000/svg" width="184.835" height="45.232" viewBox="0 0 184.835 45.232">
  <path id="Path_180" data-name="Path 180" d="M25.623,178.6c.16-.595.343-1.167.48-1.762l3.569-15.58c.915-4,1.853-8.03,2.768-12.034,1.052-4.621,2.1-9.22,3.157-13.842.114-.549.32-.778.938-.778,3.432.023,6.864.023,10.3.023h.8c-1.213,5.331-2.4,10.57-3.615,15.832.046.023.114.046.16.069.092-.114.206-.229.3-.366,3.134-4.965,6.292-9.929,9.4-14.894a1.158,1.158,0,0,1,1.144-.641c3.455.023,6.886.023,10.341.023.229,0,.435.023.778.046-.16.275-.275.435-.389.618q-6.52,9.609-13.064,19.2a1.268,1.268,0,0,0-.206.892c1.327,6.7,2.7,13.384,4.049,20.087.206,1.052.412,2.1.618,3.226-.252.023-.458.023-.663.023-3.592,0-7.207,0-10.8.023-.526,0-.709-.137-.824-.663-1.007-5.308-2.059-10.616-3.089-15.923a5.729,5.729,0,0,0-.16-.595h-.16c-.114.48-.275.961-.366,1.441q-1.75,7.653-3.478,15.306c-.114.48-.412.435-.732.435H25.6A.447.447,0,0,0,25.623,178.6Z" transform="translate(-25.6 -134.073)" fill="#fff"/>
  <path id="Path_181" data-name="Path 181" d="M552.354,177.528c-1.235-.229-2.517-.366-3.729-.686a10.345,10.345,0,0,1-6.223-4.3,9.973,9.973,0,0,1-1.6-6.886c.275-2.128.778-4.233,1.258-6.337,1.03-4.6,2.128-9.174,3.18-13.773a19.669,19.669,0,0,1,2.425-6.452,14.046,14.046,0,0,1,8.6-6.109,17.934,17.934,0,0,1,10.524.206,9.9,9.9,0,0,1,7.092,8.694,17.3,17.3,0,0,1-.641,6.223c-.824,3.569-1.647,7.115-2.494,10.684-.709,2.951-1.281,5.948-2.219,8.831a13.507,13.507,0,0,1-9.174,8.9,36.648,36.648,0,0,1-4.461.892c-.183.046-.366.069-.549.114Zm9.746-32.945c0-1.624-1.029-2.448-2.379-2.151A3.213,3.213,0,0,0,557.2,145.2l-3.02,13.109c-.5,2.219-1.029,4.416-1.533,6.635a1.937,1.937,0,0,0,2.631,2.356,3.225,3.225,0,0,0,2.219-2.585c.435-1.83.847-3.683,1.258-5.514.938-4.1,1.9-8.168,2.837-12.263C561.8,146.047,561.963,145.155,562.1,144.583Z" transform="translate(-422.862 -132.296)" fill="#fff"/>
  <path id="Path_182" data-name="Path 182" d="M384,178.564c.206-.961.412-1.9.618-2.837q1.785-7.722,3.546-15.4,2.162-9.369,4.278-18.738c.5-2.151,1.007-4.3,1.487-6.475.091-.412.229-.618.709-.618,4.942.046,9.861,0,14.78.114a13.115,13.115,0,0,1,6.612,1.853,8.583,8.583,0,0,1,4.21,7.115c.526,6.841-2.151,12.126-7.824,15.923a.769.769,0,0,0-.389.892c.686,3.935,1.35,7.893,2.013,11.828.32,1.945.641,3.866.984,5.811.023.16.023.343.046.549a4.922,4.922,0,0,1-.526.046c-3.661,0-7.321,0-10.982.023-.549,0-.709-.16-.755-.709-.343-3.089-.732-6.2-1.1-9.289-.206-1.807-.412-3.592-.595-5.4-.046-.458-.229-.641-.686-.618-1.007.046-.915-.16-1.144.915-1.1,4.85-2.219,9.723-3.317,14.574-.069.32-.16.5-.549.5-3.683-.023-7.367,0-11.027,0A3.542,3.542,0,0,1,384,178.564Zm17.616-24.732c1.853.206,3.5.046,4.736-1.327a6.606,6.606,0,0,0,1.693-5.971,2.575,2.575,0,0,0-2.814-2.334c-.3,0-.572.023-.869,0-.412-.023-.595.092-.709.549-.549,2.517-1.167,5.01-1.739,7.527C401.822,152.757,401.731,153.26,401.616,153.832Z" transform="translate(-302.003 -133.996)" fill="#fff"/>
  <path id="Path_183" data-name="Path 183" d="M709.789,148.988c.435-.984.869-1.968,1.3-2.928l4.942-11.188c.137-.3.275-.5.663-.5,3.729.023,7.435,0,11.165.023.092,0,.183.023.366.046-.183.366-.343.686-.526.984-5.01,9.129-10.044,18.234-15.008,27.409a13.336,13.336,0,0,0-.961,3.295c-.915,3.935-1.807,7.87-2.723,11.805-.069.3-.137.572-.572.549-3.683-.023-7.367,0-11.05-.023a1.394,1.394,0,0,1-.389-.069c.137-.686.275-1.327.412-1.99.938-4.118,1.922-8.213,2.791-12.332a8.9,8.9,0,0,0,0-2.7c-.389-4.644-.824-9.289-1.235-13.91-.366-4.118-.755-8.236-1.121-12.377-.023-.229,0-.458,0-.732.252-.023.458-.023.663-.023,3.455,0,6.886.023,10.341-.023.618,0,.732.183.732.755-.023,4.37-.023,8.74-.023,13.109v.732A.5.5,0,0,0,709.789,148.988Z" transform="translate(-543.394 -133.842)" fill="#fff"/>
  <path id="Path_184" data-name="Path 184" d="M276.546,134.669c-2.654,11.3-5.308,22.581-7.985,33.975h13.864c-.114.549-.183,1.03-.3,1.487-.618,2.654-1.235,5.285-1.83,7.939-.114.5-.3.686-.847.686-8.122-.023-16.267-.023-24.388-.023-.183,0-.366-.023-.663-.023.16-.755.32-1.464.48-2.173,1.35-5.948,2.723-11.9,4.072-17.845,1.167-5.125,2.356-10.227,3.546-15.352.618-2.723,1.258-5.445,1.876-8.168.069-.32.137-.572.572-.572,3.729.023,7.436,0,11.165,0C276.226,134.6,276.341,134.646,276.546,134.669Z" transform="translate(-202.054 -134.073)" fill="#fff"/>
  <path id="Path_185" data-name="Path 185" d="M198.143,191.269c-.3,1.281-.572,2.517-.846,3.752q-1.441,6.28-2.883,12.537-1.373,6.04-2.791,12.1c-.183.755-.366,1.487-.526,2.242-.069.32-.183.458-.526.458H179.589a3.543,3.543,0,0,1-.389-.069c.183-.8.343-1.6.526-2.379q1.407-6.074,2.791-12.148c1.075-4.644,2.128-9.312,3.18-13.956.16-.732.32-1.464.526-2.173a.665.665,0,0,1,.48-.412c3.706-.023,7.39-.023,11.1-.023A3,3,0,0,1,198.143,191.269Z" transform="translate(-144.059 -177.724)" fill="#fff"/>
  <path id="Path_186" data-name="Path 186" d="M227.956,134.669c-.137.641-.275,1.213-.389,1.785-.549,2.425-1.121,4.873-1.67,7.3-.069.343-.206.526-.618.526-3.638-.023-7.275,0-10.913,0-.092,0-.183-.023-.366-.046.023-.16.023-.32.046-.48l1.99-8.648c.069-.32.183-.5.572-.5h10.913C227.613,134.6,227.727,134.646,227.956,134.669Z" transform="translate(-170.897 -134.073)" fill="#fff"/>
</svg>
