<svg id="layer1" xmlns="http://www.w3.org/2000/svg" width="116.287" height="89.263" viewBox="0 0 116.287 89.263">
  <g id="g19319" transform="translate(37.185 47.421)">
    <path id="path19321" d="M0,0V30.987l5.226-3.939V5.279Z" fill="#fff"/>
  </g>
  <g id="g19323" transform="translate(48.412 46.765)">
    <path id="path19325" d="M0-21.019l6.8-1.554,2.748-2.253v-4.085Z" transform="translate(0 28.911)" fill="#fff"/>
  </g>
  <g id="g19327" transform="translate(37.944 0.948)">
    <path id="path19329" d="M-25.6-11.8l-9.614-4.431,8.69,9.739,3.29-3.247Z" transform="translate(35.218 16.231)" fill="#fff"/>
  </g>
  <g id="g19331" transform="translate(0 80.69)">
    <path id="path19333" d="M0,0H3.019L4,4.926h.018L5,0H8.024V8.377H6.017V3H6L4.8,8.377H3.222L2.025,3H2.007V8.377H0Z" fill="#fff"/>
  </g>
  <g id="g19337" transform="translate(8.77 80.689)">
    <path id="path19339" d="M-16.718-13.68c0,2.324-1.034,3.436-3.133,3.436S-23-11.356-23-13.68v-5.137h2.121v4.566c0,.856,0,1.921,1.03,1.921,1.009,0,1.009-1.066,1.009-1.921v-4.566h2.117Z" transform="translate(22.996 18.817)" fill="#fff"/>
  </g>
  <g id="g19341" transform="translate(15.662 80.491)">
    <path id="path19343" d="M-5.649-15.332a1.811,1.811,0,0,0,.078.553.941.941,0,0,0,1.012.61.772.772,0,0,0,.877-.763c0-.431-.3-.549-1.486-.959C-6.255-16.27-7.5-16.633-7.5-18.323a2.6,2.6,0,0,1,2.78-2.766,2.579,2.579,0,0,1,2.873,2.734h-2a.715.715,0,0,0-.253-.674,1,1,0,0,0-.627-.207c-.289,0-.763.093-.763.563.039.6,1.023.724,2,1.055A2.381,2.381,0,0,1-1.56-15.2c0,2.185-1.647,2.887-3.18,2.887a2.864,2.864,0,0,1-3.03-3.016Z" transform="translate(7.77 21.089)" fill="#fff"/>
  </g>
  <path id="path19345" d="M95.215,342.233h2.121v8.377H95.215Z" transform="translate(-72.662 -261.542)" fill="#fff"/>
  <g id="g19347" transform="translate(25.49 80.491)">
    <path id="path19349" d="M-12.1-8.839c-.039-.307-.232-1.233-1.112-1.233-.991,0-1.308,1.176-1.308,2.3s.317,2.3,1.308,2.3c.716,0,1-.613,1.123-1.4h2.082a3.283,3.283,0,0,1-3.144,3.483c-2.228,0-3.493-1.911-3.493-4.384,0-2.638,1.372-4.388,3.493-4.388,1.893.011,2.93,1.219,3.115,3.319Z" transform="translate(16.649 12.157)" fill="#fff"/>
  </g>
  <g id="g19351" transform="translate(35.7 80.689)">
    <path id="path19353" d="M-5.136-5.715H-7.065V-7.861h5.978v2.146H-3.015V.516H-5.136Z" transform="translate(7.065 7.861)" fill="#fff"/>
  </g>
  <g id="g19355" transform="translate(42.294 80.69)">
    <path id="path19357" d="M0,0H5.7V2.146H2.121V3.194H5.368V5.183H2.121V6.231H5.807V8.377H0Z" fill="#fff"/>
  </g>
  <g id="g19359" transform="translate(48.75 80.69)">
    <path id="path19361" d="M0,0H2.117V6.231H5.169V8.377H0Z" fill="#fff"/>
  </g>
  <g id="g19363" transform="translate(54.445 80.69)">
    <path id="path19365" d="M0,0H5.7V2.146H2.121V3.194H5.372V5.183H2.121V6.231H5.8V8.377H0Z" fill="#fff"/>
  </g>
  <g id="g19367" transform="translate(60.811 80.688)">
    <path id="path19369" d="M-11.791-22.31h-2.37l-2.057-8.377h2.142l1.13,5.08h.014l1.116-5.08h2.174Z" transform="translate(16.218 30.687)" fill="#fff"/>
  </g>
  <path id="path19371" d="M262.374,342.233H264.5v8.377h-2.125Z" transform="translate(-194.19 -261.542)" fill="#fff"/>
  <g id="g19373" transform="translate(71.135 80.491)">
    <path id="path19375" d="M-5.649-15.332a1.811,1.811,0,0,0,.078.553.941.941,0,0,0,1.012.61.772.772,0,0,0,.877-.763c0-.431-.3-.549-1.486-.959C-6.255-16.27-7.5-16.633-7.5-18.323a2.6,2.6,0,0,1,2.78-2.766,2.577,2.577,0,0,1,2.87,2.734h-2a.707.707,0,0,0-.253-.674.981.981,0,0,0-.624-.207c-.289,0-.763.093-.763.563.039.6,1.023.724,2,1.055A2.381,2.381,0,0,1-1.56-15.2c0,2.185-1.65,2.887-3.18,2.887a2.864,2.864,0,0,1-3.03-3.016Z" transform="translate(7.77 21.089)" fill="#fff"/>
  </g>
  <path id="path19377" d="M298.428,342.233h2.121v8.377h-2.121Z" transform="translate(-220.402 -261.542)" fill="#fff"/>
  <g id="g19379" transform="translate(80.869 80.491)">
    <path id="path19381" d="M-9.294,0C-7.2,0-5.8,1.832-5.8,4.388S-7.2,8.773-9.294,8.773s-3.49-1.829-3.49-4.384S-11.383,0-9.294,0m0,6.687c.542,0,1.372-.435,1.372-2.3s-.831-2.3-1.372-2.3-1.369.438-1.369,2.3.831,2.3,1.369,2.3" transform="translate(12.784)" fill="#fff"/>
  </g>
  <g id="g19383" transform="translate(88.64 80.69)">
    <path id="path19385" d="M0,0H2.171l2,4.481H4.2V0h2V8.377H4.138L2.025,3.8H2.007V8.377H0Z" fill="#fff"/>
  </g>
  <g id="g19391" transform="translate(0.035 0)">
    <path id="path19393" d="M-303.531-27.646a6.627,6.627,0,0,0-4-.763,5.7,5.7,0,0,0-3.272,1.519c.011-.007-2.107,2.089-2.107,2.089l-.567.905c-.007.011-1.889,2.363-1.889,2.363l-.021.025V-34.554l-5.775-3.472,0,23.7-.075.114-1.383,1.625V-38.026h-35.7l-12.7,12.633-11.278-12.633H-417.5V40.3h35.806V5.794l10.541,10.872,12.943-11.032V40.3h35.6l0-33.051c.278-.474.506-.852.506-.852s.3-.442.3-.442c.018-.021.321-.506.652-1.034l0,35.379,5.76-3.978V-5.413l.631-.941c.053-.089.888-1.337.888-1.337s1.326-1.95,1.326-1.95c.014-.032.506-.656.506-.656l1.226-1.736a2.643,2.643,0,0,1,1.2-1.069l.125-.068.168-.121.638-.645c.011-.014,1.109-.941,1.109-.941l1.875-.873,1.75-.962c.007,0,1.6-1.971,1.6-1.971l.852-2.645s.25-2.563.25-2.563a5.341,5.341,0,0,0-2.285-3.754m-42.893,21.3c.039.25.175,2.567.168,2.948-.007,1.148.071,2.413.036,2.923-.029.389.025,1.729.025,1.729.1,1.059.324,2.217.346,2.424.046.542-.157,2.6-.1,3.066a8.2,8.2,0,0,1,.139,1.158,7.836,7.836,0,0,0,.046,1.422c-.029.424-.046.909-.061,1.426-.029.766-.053,1.558-.125,2.249-.021.175,0,1.383,0,1.383a13.438,13.438,0,0,0-.082,3.729c.039.253-.011,1.084.011,1.23.032.189.3,1.166.339,1.38a16,16,0,0,0,.339,2.149c.157.346.795,1.861.852,2.043a5.273,5.273,0,0,1,.217,2.663,26.19,26.19,0,0,1-.877,2.648c-.225.346-.563.549-.724.8a1.645,1.645,0,0,1-.709.545,5.6,5.6,0,0,1-3.379.153,6.135,6.135,0,0,1-2.057-.6,3.167,3.167,0,0,1-1.005-2.135c-.046-.282.036-1.034.018-1.151-.021-.171-.278-1.283-.278-1.64a8.962,8.962,0,0,0-.021-1.426c-.1-.638-.413-1.675-.413-1.675-.086-.424-.314-1.344-.324-1.372a9.036,9.036,0,0,1-.438-1.928,6.262,6.262,0,0,1,.36-2.695,8.264,8.264,0,0,0,.31-1.283c.036-.3-.2-1.74-.153-2.221.014-.2.175-.82.182-.9.061-.406.075-1.49.078-1.658a19.892,19.892,0,0,0,.132-2.075,8.167,8.167,0,0,1,0-1.144,10.237,10.237,0,0,0,0-1.957,7.305,7.305,0,0,1-.078-1.444,18.021,18.021,0,0,1-.053-2.3c.007-.111-.128-1.294-.132-1.661-.007-.232-.021-1.682-.036-1.854-.31-3.611-.8-4.3-.995-4.434a1.36,1.36,0,0,0-1.03.021c-.232.107-.834.631-1.344.905s-1.429.706-1.747.941a15.334,15.334,0,0,1-2.142,1.387,4.468,4.468,0,0,0-.788.677A9.937,9.937,0,0,1-364.2-.23a5.963,5.963,0,0,0-1.5,1.03c-.171.171-.8,1.226-1.208,1.622a3.546,3.546,0,0,0-.716,1.073,3.113,3.113,0,0,1-.866,1.262,3.632,3.632,0,0,1-3.03.225,4.266,4.266,0,0,1-2.189-2.31,4.2,4.2,0,0,1,.9-4.085,5.345,5.345,0,0,1,2.627-1.28,7.9,7.9,0,0,0,1.618-.581c.217-.121.913-.642,1.059-.738.221-.146,1.009-.528,1.162-.627a16.343,16.343,0,0,1,1.529-1.134c.92-.513,1.65-.927,2.082-1.2a12.6,12.6,0,0,0,2.085-1.49c.185-.178.973-.471,1.836-.959.217-.125,1.119-.428,1.347-.528.157-.075.784-.535.97-.631a1.706,1.706,0,0,0,.987-2.174,4.827,4.827,0,0,1-.168-1.4,5.531,5.531,0,0,1,.5-1.458c.15-.278.385-.271.517-.528a1.554,1.554,0,0,1,.9-.563,2.384,2.384,0,0,1,1.173-.517,6.035,6.035,0,0,1,2.8.684,3.565,3.565,0,0,0,1.433-.075c.071-.014.535-.317.706-.381.228-.086.959-.285,1.109-.339.225-.078,1.265-.624,1.529-.724s.9-.217,1.208-.289c.5-.353,1.426-.656,1.782-.962a9.526,9.526,0,0,0,1.062-1.347,11.062,11.062,0,0,1,1.383-1.08,6.159,6.159,0,0,1,1.622-.952,11.73,11.73,0,0,1,1.426.075,1.826,1.826,0,0,1,1.725.827,4.132,4.132,0,0,1,.82,1.369,4.33,4.33,0,0,1-1.939,4.071c-.1.061-.577.2-.87.3-.41.135-.827.435-1.105.51a3.333,3.333,0,0,0-1.052.652c-.225.118-.987.588-1.233.724a3.429,3.429,0,0,1-1.059.706,4.685,4.685,0,0,0-1.793.891,5.848,5.848,0,0,1-1.622.513c-.114.029-1.465.6-1.6,1.39-.143.831-.025,1.052-.182,2.242a8.976,8.976,0,0,0,.014,2.075m44.012-15.178a10.277,10.277,0,0,1-.759,2.385,6.881,6.881,0,0,1-1.34,1.672,7.38,7.38,0,0,1-1.5.831c-.278.1-1.64.734-2.007.93a4.742,4.742,0,0,0-1.358,1.137,6.527,6.527,0,0,1-.563.57,3.77,3.77,0,0,0-1.729,1.59,27.612,27.612,0,0,1-1.675,2.278,8.631,8.631,0,0,1-1.183,1.772,3.442,3.442,0,0,0-.424.553c-.139.207-.282.438-.435.692l-.121.192a9.984,9.984,0,0,1-.791,1.2,5.45,5.45,0,0,0-.945,1.661,19.118,19.118,0,0,0-1.126,2.035c-.125.339-.781,1.437-.852,1.6A12.766,12.766,0,0,1-320.292.914a7.663,7.663,0,0,0-.346.93c-.1.317-.36.941-.449,1.183l-.4.659a.149.149,0,0,1-.018.025c-.11.182-.221.364-.339.553-.264.428-.531.848-.706,1.119-.118.15-.235.324-.339.481-.168.246-1.394,2.338-1.675,2.837-.125.228-.278.456-.435.7a6.09,6.09,0,0,0-.945,1.843,11.059,11.059,0,0,1-.481,1.237,12.425,12.425,0,0,0-.716,2.816,10.327,10.327,0,0,0-.032,1.754,7.716,7.716,0,0,1-.053,1.718,7.576,7.576,0,0,1-1.055,2.659,8.252,8.252,0,0,1-1.151,1.358,3.305,3.305,0,0,1-2.271.538,3.357,3.357,0,0,1-3.208-1.879,13.524,13.524,0,0,1-.759-1.469,17.242,17.242,0,0,1-1.1-2.88c-.1-.335-.232-.706-.356-1.066-.143-.392-.449-1.5-.474-1.679s-.413-1.469-.438-1.593c-.15-.788-.356-1.519-.56-2.224a20.277,20.277,0,0,1-.524-2.125,21.654,21.654,0,0,0-.749-2.581s-.513-1.629-.677-2.21c-.225-.788-.959-2.962-.959-2.962-.274-.741-.923-2.481-.97-2.759-.385-2.26-.381-4.081.025-4.876a3.444,3.444,0,0,1,1.308-.987,12.6,12.6,0,0,1,1.173-.677,6.555,6.555,0,0,1,2.1-.107,3.374,3.374,0,0,1,1.3.246c1.194.831,1.28,1.9,1.437,3.853,0,0,.207,2.1.307,2.884.071.581.15,1.183.21,1.779.039.41.061.859.078,1.29.032.781.3,2.271.3,2.271a2.862,2.862,0,0,0,1.572,2.189,1.037,1.037,0,0,0,.916-.075A4.25,4.25,0,0,0-330.138,2.8a1.628,1.628,0,0,1,.225-.378A4.083,4.083,0,0,0-329.15.814a8.66,8.66,0,0,1,.82-1.255,12.73,12.73,0,0,0,.724-1.066c.053-.1,1.244-1.953,1.244-1.953s.46-1.023.656-1.4a6.824,6.824,0,0,0,.385-.93,4.5,4.5,0,0,1,.684-1.7,10.537,10.537,0,0,0,1.144-2.11c.128-.242.478-.845.8-1.376.018-.021.05-.068.071-.1v0c.007-.007.018-.021.025-.029.143-.189.328-.438.471-.61l1.027-1.216a8.548,8.548,0,0,0,.61-.72c.2-.264.624-.888,1-1.44a17.569,17.569,0,0,1,1.091-1.419c.2-.207,1.7-2.221,1.928-2.527.1-.125.709-.749,1.08-1.123,0,0,0,0,0-.007.513-.517.7-.706.77-.795.3-.4.624-.795.938-1.176s.634-.77.941-1.18c.135-.171.481-.791.574-.913.324-.428,1.911-1.893,1.957-1.932a4.84,4.84,0,0,1,2.752-1.308,5.872,5.872,0,0,1,3.4.606,4.466,4.466,0,0,1,1.871,3.016,7.724,7.724,0,0,1-.228,2.331" transform="translate(417.499 38.026)" fill="#fff"/>
  </g>
</svg>
