<svg id="unilever-3" xmlns="http://www.w3.org/2000/svg" width="116.287" height="128.648" viewBox="0 0 116.287 128.648">
  <path id="Path_173" data-name="Path 173" d="M46.7,138.646a4.676,4.676,0,0,0,4.072-2.492,25.006,25.006,0,0,1-1.4-6.457c-.4-6.469,2.094-12.554,4.823-12.721,2-.121,3.6,1.772,3.783,4.837.49,8.06-2.193,11.426-3.535,14.327a4.769,4.769,0,0,0,3.935,3.042,2.589,2.589,0,0,0,1.672-.6,6.608,6.608,0,0,1-.27-1.935c0-4.671,3-8.608,5.605-8.608,2.068,0,3.268,2.735,3.268,4.54,0,2.132-1.8,3.871-4.469,5.539a3.2,3.2,0,0,0,2.068.8c3.806,0,5.8-4.605,7.273-8.81.267-.8.735-1.937,1.667-1.937,1.6,0,2.272,10.543,4.934,10.543,1.136,0,2.07-2.337,2.07-4.134,0-1.335-.466-1.468-.466-3.4,0-2.133,1.135-3.932,2.671-3.932.934,0,1.27.929,1.27,2.062,0,4.271-3.072,12.212-7.6,12.212-3.408,0-3.142-5.871-4.342-5.871-1.34,0-3.208,5.939-9.808,5.939a4.233,4.233,0,0,1-3.135-1.6,7.683,7.683,0,0,1-4.474,1.535c-2.466,0-3.534-2.535-4.534-2.535-1.2,0-2.534,2.6-6.541,2.6-3.2,0-3.737-4.267-4.867-4.267-1,0-2.537,4.267-4.2,4.267-2.807,0-3.4-7.406-5.874-7.406-1.935,0-8.049,7.522-9.708,7.35-.669-.07-.948-.57-.878-1.236a46.59,46.59,0,0,1,1.211-4.563c.539-2.029,1.035-4.253,1.311-4.963a1.774,1.774,0,0,1,1.61-1.17c.3.028.39.587.483,1.048.337,1.649.808,3.332,1.338,3.332.936,0,4.032-5.939,5.832-5.939,2.206,0,2.47,9.342,5.47,9.342,1,0,1.74-1.2,2.4-2.67.069-2.474.734-6,2.736-6,1.4,0,2.072,3.132,1.067,5.871,0,3.267,2.134,4.067,3.537,4.067m53.375-8c-.827,3.429-3.334,8.474-7.074,8.474-.865,0-2.4-.335-2.4-1.2,0-.935,5.875-1.064,5.875-5.537,0-1.666-1.534-4-3.8-4-3,0-5.931,3.272-5.931,7.809,0,4.067,2.527,5.4,5.061,5.4,4.407,0,7.074-3.607,8.474-6.607.67,2,1.065,6.607,2.738,6.607.665,0,1.135-.335,1.938-2.134,1.994-4.473,3.931-9.609,6.6-9.609,1,0,.4,1.8,2.8,1.8a1.948,1.948,0,0,0,1.929-2.007c0-1.535-1.4-2.732-3.532-2.732-6.271,0-7.6,9.408-8.6,9.408-1.67,0-1.135-7.539-2.339-7.539-1.069,0-1.592,1.273-1.735,1.868m-44.261-7.027c-.116-1.863-.567-2.7-1.569-2.638-1.329.081-1.944,4.262-1.672,8.655.173,2.867.6,3.308,1,3.281.735-.042,2.5-5.166,2.243-9.3M44.965,119.7a1.959,1.959,0,0,0-2.067-1.8,2.649,2.649,0,0,0-2.332,3,1.957,1.957,0,0,0,2,2.006c1.464,0,2.531-1.668,2.4-3.206m20.754,13.61c0-1.132-.6-2.066-1.332-2.066-.607,0-2,.663-2,2.8a4.142,4.142,0,0,0,.867,2.807,3.456,3.456,0,0,0,2.468-3.541M91.8,131.044c1.4,0,1.805,1.661,1.472,2.664a4.287,4.287,0,0,1-3.4,2.472c-.4-1-.6-5.136,1.933-5.136m-76.825-4.738a20.9,20.9,0,0,1-.9-2.976c-.333-2.229.832-3.7,1.9-4.034,1.2-.335,1.67.267,2.134,1.67.6,2.134.669,4.934.466,8.938-.263,5.472-3,12.078-9.8,11.941C2.9,141.717.3,137.912.034,132.108a26.645,26.645,0,0,1,1.2-9.34c.6-2.07,1.136-2.807,3-3.2,1.467-.267,1.335,1.265,1,3.073a35.534,35.534,0,0,0-.8,10.473c.262,4.8,2.469,6.673,4.871,6.673,3.6.068,5.2-2.934,5.872-7.275a12.663,12.663,0,0,0-.2-6.2M93.671,39.5c.462,3.362,5.556,7.895,6.938,7.789.922-.079,1.276-4.391,1.276-7.789,0-1.946.107-3.47-.921-3.826-1.63,3.294-5.91,3.967-7.293,3.826m.283-1.488c3.679,0,7.045-2.938,7.045-5.523a2.156,2.156,0,0,0-2.019-2.372,1.559,1.559,0,0,1,.354,1.132c0,1.948-2.969,4.108-6.193,4.108A1.353,1.353,0,0,0,91.616,36.6c0,.992.957,1.416,2.337,1.416m-.778-4a1.537,1.537,0,0,1-1.6-.778c-.319-.638-.213-1.665-.815-2.126a6.175,6.175,0,0,0,1.737.176c1.6,0,3.12-1.1,4.288-1.1a.917.917,0,0,1,1.019.991c0,1.561-3.145,2.834-4.634,2.834M13.981,61.772c1.2,0,.954-7.365,2.9-7.365.461,0,.6.461.6,1.028,0,1.663-.814,4.107-.814,5.451,0,.674.176.886.5.886.851,0,2.337-8.109,3.789-8.109.461,0,.672.46.672.922,0,1.7-2.159,6.584-2.159,7.965,0,.211.071.389.248.389.886,0,2.656-3.822,3.221-5.734.319-.992.744-1.524,1.134-1.524.354,0,.673.39.673,1.205,0,1.912-1.772,6.408-3.327,9.419-1.2,2.335-3.08,5.7-3.08,7.575a3.757,3.757,0,0,0,1.558,3.152c-2.267-.142-3.188-.354-4.036-2.125-3.788,7.541,6.974,6.8,3.291,13.488-.673-1.2-5.983-2.442-5.983-9.453,0-6.054,5.31-9.594,5.31-12.109a1.616,1.616,0,0,0-.636-1.31c-1.169-.992-1.205-1.8-2.122-1.8-.675,0-1.489,1.556-.64,2.937.285.461.533.743.533,1.169,0,.99-1.56,3.645-2.654,3.645s-1.947-2.723-1.947-7.116c0-3.894.884-7.823,1.981-7.823.319,0,.425.213.425.5,0,.461-.141,1.381-.141,2.937,0,1.665.389,1.808.708,1.808" transform="translate(0 -13.2)" fill="#fff"/>
  <path id="Path_174" data-name="Path 174" d="M31.041,72.171c1.489,0,2.726-1.1,2.726-3.539V65.019A6.186,6.186,0,0,1,34.8,60.983a6.377,6.377,0,0,0-.106,1.416c0,3.045,1.7,5.135,1.7,8.073,0,1.1-.319,1.7-1.167,1.7-.816,0-.745-.745-.922-.745-.142,0-.354.461-.354.957a1.915,1.915,0,0,0,2.017,1.912,2.43,2.43,0,0,0,2.3-2.479c0-3.184-2.478-6.726-2.478-10.123a7.949,7.949,0,0,1,.708-3.259c0,7.047,5.983,12.179,5.983,15.116a1.181,1.181,0,0,1-1.238,1.205,1.155,1.155,0,0,1-1.205-1.135c0-.248-.037-.317-.142-.317a1.813,1.813,0,0,0-.849,1.63,2.649,2.649,0,0,0,2.726,2.584,3.136,3.136,0,0,0,3.115-3.222c0-3.717-7.258-9.346-7.258-15.365a8.337,8.337,0,0,1,.921-3.966c-4.674,3.008-6.123,7.011-6.123,10.517,0,3.045-.106,4.564-1.663,4.564-.816,0-1.027-.742-1.311-.742-.213,0-.319.637-.319.813a1.941,1.941,0,0,0,1.911,2.054M92.4,36.8c1.559,0,2.729-.708,2.729-1.134,0-.14-.213-.247-.675-.247a19.537,19.537,0,0,1-3.118-.318c-1.489-.249-2.623-.815-3.048-.815-.141,0-.213.07-.213.176,0,.921,1.7,2.337,4.325,2.337m-7.717-4.5c.449-.3,2.444.176,5.025-1.1a1.9,1.9,0,0,1,.92-.247c1.242,0,.921,1.416,2.057,1.416.884,0,2.02-.744,2.693-.744,1.056,0,2.579,3.329,2.579,4.886,0,1.807-2.72,2.9-5.946,2.9-4.7,0-7.541-4.1-7.541-6.761a.372.372,0,0,1,.214-.354M31.785,85.517c-1.167.284-3.045,2.122-3.045,5.03,0,3.468,3.718,8.815,9.842,8.815,5.167,0,6.443-3.575,6.443-5.985,0-5.346-3.291-9.1-7.575-9.1a4.272,4.272,0,0,0-4.426,4.213,5.86,5.86,0,0,0,5.983,5.843,2.983,2.983,0,0,0,3.15-3.044c0-1.594-1.451-3.788-3.575-3.788a1.038,1.038,0,0,0-1.1,1.1c0,.849,1.169,1.7,2.62,1.7a1.9,1.9,0,0,0,.78-.141.854.854,0,0,1,.106.425c0,.815-.781,1.311-1.983,1.311a3.467,3.467,0,0,1-3.541-3.473c0-1.272,1.1-2.193,2.691-2.193,3.152,0,5.028,2.8,5.028,5.595,0,2.511-1.38,3.966-4.212,3.966-5.666,0-8.427-5.1-7.188-10.271M69.453,99.185a1.416,1.416,0,1,0,1.416-1.417,1.42,1.42,0,0,0-1.416,1.417m2.744,7.076a16.688,16.688,0,0,0,2.142-.142c.53,0,.567.319.567.532,0,.779-1.737,1.737-4.816,1.737a3.127,3.127,0,0,1-3.222-2.02,13.959,13.959,0,0,1-7.116,2.159c-7.257,0-9.1-3.153-11.364-4.177-1.737-.779-4.391.745-8.108-3.4a8.89,8.89,0,0,0,1.7.143c3.254,0,4.989-1.592,4.989-4.143a8.92,8.92,0,0,0-.071-.986,7.021,7.021,0,0,1,3.79,5.093c.071.356,1.522.673,2.441.673a2.88,2.88,0,0,0,3.152-2.618c4.249-.354,7.118-2.867,7.72-6.056a8.4,8.4,0,0,1,3.68,2.588,6.373,6.373,0,0,1,2.124-.319,13.6,13.6,0,0,1,3.93.674c.071-.461.143-1.028.851-1.028,1.062,0,.778,1.169,1.132,1.838.178.354,1.065.567,1.065,1.275a.907.907,0,0,1-.922.922,1.56,1.56,0,0,1-.427-.07c-.707.247-.742,5.344-3.717,5.344-2.194,0-4.212-1.805-5.1-4.069a1.518,1.518,0,0,0-1.275-1.1c-.565,0-.884.107-1.556.851a12.312,12.312,0,0,1-9.028,3.891c-1.206,0-2.159-.107-2.409-.107-.141,0-.141.035-.141.07,0,.249,1.2,1.206,3.824,1.206,6.23,0,7.754-3.507,8.745-3.507a.821.821,0,0,1,.812.567,6.951,6.951,0,0,0,6.6,4.175m21.474-22.55c-.743,0-4.856,5.488-7.5,5.488C85.529,89.2,85,87.994,85,87.078c0-.5.316-.851,1.453-1.1,6.087-1.383,4.74-5.95,9.941-5.95a5.94,5.94,0,0,1,6.057,6.339c0,4.674-6.651,10.478-7.644,10.478-.816,0-1.7-1.167-1.7-1.946,0-.246.107-.567.815-.849,3.394-1.348,5.34-4.461,5.34-6.057a.627.627,0,0,0-.638-.7c-.6,0-3.179,5.874-6.049,5.874-1.984,0-4-1.8-4-2.654,0-1.416,5.739-4.036,5.739-6.02,0-.744-.353-.779-.636-.779m3.818-2.194c-.5,0-1.026.39-1.026,1.348a2.243,2.243,0,0,0,1.275,1.944,2.193,2.193,0,0,0,1.024.284c1.029,0,1.843-.284,1.843-1.135,0-1.094-1.594-2.442-3.116-2.442m-66.13-41A1.416,1.416,0,1,0,32.778,39.1,1.422,1.422,0,0,0,31.36,40.52m-1.84-3.186a1.416,1.416,0,1,0,1.415-1.416,1.42,1.42,0,0,0-1.415,1.416m-1.275,9.7a3.369,3.369,0,0,0-2.513,2.974,2.083,2.083,0,0,0,2.23,2.089,2.306,2.306,0,0,0,1.38-.354A4.123,4.123,0,0,1,28,48.664a4.8,4.8,0,0,1,.247-1.63m-8.672.5a2.679,2.679,0,0,0-.035.53c0,1.663.884,2.584,2.053,2.584a3.814,3.814,0,0,0,2.831-1.7,7.523,7.523,0,0,1-1.275.1,4.239,4.239,0,0,1-3.573-1.519m-1.24,3.149c0,2.691.815,3.966,2.265,3.966,1.134,0,2.656-.815,4.459-2.372a15.62,15.62,0,0,1-3.4.53c-1.275,0-2.264-.495-3.327-2.124M27.5,36.519a6.961,6.961,0,0,0,.317-2.053c0-1.7-.779-4.285-3.186-4.285A2.359,2.359,0,0,0,22.26,32.59c0,2.8,2.8,3.929,5.242,3.929m-3.011,8.922a2.923,2.923,0,0,1-2.442-2.761c0-.708.53-1.594.921-1.594.142,0,.213.107.247.356a4.026,4.026,0,0,0,2.409,3.22c.107.071.176.107.176.178,0,.247-.673.6-1.311.6m3.259-4.32c.244.334.921.745.921.993,0,.495-.284,1.133-.851,1.133-1.24,0-2.23-1.876-2.23-2.94,0-.672.39-.742.919-.742a.852.852,0,0,1,.532.142c.319.176.319.884.71,1.414m-8.319,4.391A.692.692,0,0,0,20,46.575c.284,0,.461-.07.6-.07.849,0,1.805.6,3.186.6a6.75,6.75,0,0,0,2.974-.848A7.394,7.394,0,0,0,30.3,41.3c0-.673-.541-.586-.994-1.205s-.278-1.163-.565-1.451a3.114,3.114,0,0,0-1.311-.247,7.478,7.478,0,0,0-.778-.035,7.17,7.17,0,0,0-4.107,1.134c-3.072,1.959-2.62,5.2-3.113,6.018M31.184,44.1a6.717,6.717,0,0,0-1.594,4.07c0,1.911,1.17,3.5,2.975,3.5,1.734,0,2.548-1.486,2.548-3.007,0-2.372-2.159-4.037-3.929-4.567m-7.576-6.8a4.26,4.26,0,0,1-2.3.778,2.661,2.661,0,0,1-2.726-2.724,2.985,2.985,0,0,1,1.876-2.8,3.5,3.5,0,0,0-.035.6A4.12,4.12,0,0,0,23.608,37.3M86.026,49.051a1.484,1.484,0,1,0,1.48-1.485,1.5,1.5,0,0,0-1.48,1.485m.106,4.461a1.662,1.662,0,1,0,1.662-1.662,1.662,1.662,0,0,0-1.662,1.662m-5.1,3.01a2.445,2.445,0,1,0,2.445-2.443,2.449,2.449,0,0,0-2.445,2.443m1.31-4.991a1.417,1.417,0,1,0,1.418-1.416,1.42,1.42,0,0,0-1.418,1.416M77.7,54.363a1.415,1.415,0,1,0,1.41-1.416,1.418,1.418,0,0,0-1.41,1.416m3.644-8.282a2.268,2.268,0,1,0,2.267-2.267,2.281,2.281,0,0,0-2.267,2.267m2.657-4.356a1.371,1.371,0,1,0,1.346-1.347,1.344,1.344,0,0,0-1.346,1.347m-6.405,3.4a1.342,1.342,0,1,0,1.338-1.344A1.343,1.343,0,0,0,77.6,45.123m-.178,4.6a2.144,2.144,0,1,0,.626-1.528,2.145,2.145,0,0,0-.626,1.528M72.96,51.991a2.019,2.019,0,1,0,2.018-2.018,2.037,2.037,0,0,0-2.018,2.018M74.163,47a1.417,1.417,0,1,0,1.415-1.416A1.421,1.421,0,0,0,74.163,47M86.592,57.9a1.361,1.361,0,0,1,1.338-1.31,1.345,1.345,0,1,1-1.338,1.31m.913,40.715c.178,0,.39.1.39.744a3.109,3.109,0,0,1-1.622,2.618,6.825,6.825,0,0,1-3.863,1.13,8.348,8.348,0,0,0,.5-2.58,6.759,6.759,0,0,0-.07-.815H83.3a7.993,7.993,0,0,0,4.207-1.1m.284-3.506a1.288,1.288,0,0,0,.354-1.027v-.815c0-1.027-1.551-1.627-3.678-1.627-2.586,0-3.967,1.165-3.967,1.662v1.631c0,.673,1.559,1.346,3.472,1.346a5.9,5.9,0,0,0,3.82-1.17m1.841.39a10.417,10.417,0,0,1-6.653,2.3,8.772,8.772,0,0,1-3.048-.6c-.354,0-.744.354-1.133.816a7.985,7.985,0,0,0-1.94,4.85A2.9,2.9,0,0,0,80,105.693c6.627,0,11.58-4.14,11.58-7.5,0-1.91-1.132-2.69-1.949-2.69m1.24-29.774c0,.884.284,1.911,1.17,1.911.743,0,1.381-1.131,1.381-2.371,0-1.416-.247-2.515-.247-3.082,0-.246.106-.352.247-.352.532.035,1.029,1.486,1.6,1.486.639,0,1.588-1.169,1.977-1.169.107,0,.141.142.141.176,0,.532-.815,1.7-.815,2.161,0,.389,2.054.461,2.054.815,0,.531-2.153.531-3.18.992-.992.424-1.6.956-1.6,1.663s.708.848,1.7.848c2.365,0,4.029-1.274,4.559-1.274a.167.167,0,0,1,.176.178c0,.354-1.2,1.521-1.2,2.053,0,.6,2.2,1.308,2.162,1.662-.035.107-.178.142-.425.142-.391,0-.993-.105-1.454-.105a.817.817,0,0,0-.638.176c-.244.284.071,2.159-.421,2.159-.462,0-1.667-4.175-4.386-4.175-.39,0-.673.317-.673.849,0,1.415,1.381,3.043,2.693,3.823.594.389,1.588.779,1.588.992,0,.422-2.261.035-2.261.742,0,.638.284,1.6.284,2.161,0,.178-.037.389-.249.389-.424,0-1.453-1.947-1.949-1.947-.424,0-1.345,1.167-1.737,1.167a.2.2,0,0,1-.175-.21c0-.816,1.31-2.656,1.31-4.463,0-.849-.106-2.691-1.135-2.691-.849,0-1.807,1.344-2.232,2.691-.248.778-.07,3.788-.637,3.788-.531,0-.39-2.017-1.1-2.017-.522,0-1.656.956-2.047.956-.07,0-.141-.037-.141-.107,0-.424,1.027-1.8,1.027-2.089,0-.53-2.338-.6-2.338-1.026,0-.247.921-.425,1.771-.567,1.8-.319,4.458-1.629,4.458-3.467,0-2.054-1.986-2.94-3.288-3.791-.674-.424-1.417-.776-1.417-1.061s.851-.284,1.205-.284c.53,0,1.056-.035,1.056-.459,0-.32-.073-.956-.073-1.451,0-.356.037-.64.18-.64.53,0,1.274,1.735,1.628,1.735.567,0,1.347-1.416,1.88-1.416.175,0,.246.107.246.425,0,1.309-.673,2.8-.673,4.072M73.985,55.355c.391,3.009,4.43,1.486,4.43,5.133,0,.531-.141,1.311-.141,1.981,0,.781.07,1.454.665,1.454s.744-.425.744-.992-.143-1.275-.143-1.664a1.37,1.37,0,0,1,1.417-1.522c1.348,0,2.375,1.381,4.394,1.381-.46,2.265-5.139,1.662-5.139,4.142,0,1.24,1.242,1.521,2.056,1.521.744,0,.994-.107.994-.742,0-.356-.073-.744-.073-.992a.281.281,0,0,1,.285-.284c.78,0,4.6,2.9,4.6,3.789,0,.813-4.032,1.627-5.2,1.627a.377.377,0,0,1-.425-.389c0-.248.6-.992.6-1.416,0-.317-.53-.53-1.949-.53-.673,0-1.169.07-1.169.6,0,.954,1.559,2.122,1.559,3.007,0,.708-.425,1.134-1.559,1.134-.957,0-2.4-.744-2.4-1.983,0-.99,1.021-1.981,1.021-2.583a.493.493,0,0,0-.56-.462c-1.311,0-1.666,3.469-6.306,3.858a3.549,3.549,0,0,0,1.381-2.935c0-.744-.176-1.348-.176-2.161,0-1.062.5-1.594,1.2-1.594,1.31,0,1.947,1.84,2.8,1.84a1.023,1.023,0,0,0,.957-1.061c0-2.691-5.172-2.3-5.172-6.09a8.779,8.779,0,0,1,1.31-4.071" transform="translate(-8.034 -13.226)" fill="#fff"/>
  <path id="Path_175" data-name="Path 175" d="M94.324,79.913a.849.849,0,0,0,.851.886.976.976,0,0,0,.922-1.064c0-.742-.674-1.77-1.313-1.77-.284,0-.176.425-.249.885-.035.353-.211.778-.211,1.062M92.483,75.2c3.719.708,5.739,3.5,5.739,6.125A3.2,3.2,0,0,1,95.1,84.8a3,3,0,0,1-3.11-3.221c0-1.486,1.161-3.044,1.161-4.566a2.742,2.742,0,0,0-.671-1.8m-4.705,6.02a1.426,1.426,0,0,1,.461,1.061c0,.531-.248,1.1-.248,1.7a1.556,1.556,0,0,0,1.556,1.593,1.651,1.651,0,0,0,1.668-1.7c0-1.347-1.386-2.656-3.437-2.656M99.5,78.958a2.1,2.1,0,0,1,.354,1.13c0,.993-.673,1.912-.673,2.94a2.111,2.111,0,0,0,2.226,2.122,2.449,2.449,0,0,0,2.445-2.548c0-1.876-1.7-3.469-4.352-3.645M88.627,77.079c1.63.212,2.021.779,2.021,1.242,0,.778-.71,1.024-1.384,1.024-.5,0-1.062-.1-1.664-.1a2.681,2.681,0,0,0-2.2.921,1.21,1.21,0,0,1,1.134,1.1c0,2.053-5.7.353-5.7,5.629,0,2.8,2.9,5.843,7.293,5.843,2.268,0,3.721-.744,3.721-1.6,0-.671-1.2-.212-1.2-.779,0-.248.424-.71.424-1.1,0-.173-.141-.492-.424-.492-.64,0-1.843,1.024-4.288,1.024-1.911,0-3.788-1.1-3.788-2.583,0-.317.142-.5.354-.5s.5.143.743.143c.215,0,.249-.143.249-.532s0-1.488.671-1.488,1.948,2.48,6.837,2.48c1.623,0,4.775-.319,5.946-1.381a9.2,9.2,0,0,1-9.454,9.027,9.991,9.991,0,0,1-10.162-10.2A10.422,10.422,0,0,1,88.237,74.426c1.556,0,2.869.529,2.869,1.2,0,.922-2.3.356-2.48,1.451M65.72,36.651c2.337,0,3.4,2.018,3.4,4.284,0,.99-.281,2.443-.742,2.443s-.39-.815-.46-1.559c-.071-.954-.247-1.167-.567-1.167-.6,0-.99,1.415-.99,2.726,0,.813.142,1.735.778,1.735a1.28,1.28,0,0,0,.884-.39,3.167,3.167,0,0,1-3.045,3.047c-3.115,0-4.284-3.648-4.638-5.772-1.876,1.983-3.61,3.435-6.726,3.435A3.985,3.985,0,0,1,49.4,41.29c0-.6.212-2.161.957-2.161.884,0,.107,2.9,1.84,2.9.425,0,1.2-.354,1.629-1.521a6.583,6.583,0,0,0,.39-2.089c0-.957-.213-1.557-.92-1.557a2.784,2.784,0,0,0-1.6.707,5.334,5.334,0,0,1,5.168-3.859c2.8,0,4.285,2.48,4.285,5.24a6.968,6.968,0,0,1-.107,1.2c1.2-1.983,2.869-3.5,4.674-3.5m-2.727,4.177c0-.6-.141-.743-.283-.743-.354,0-.743.425-1.31,1.381.071,1.275.284,1.842.638,1.842.388,0,.954-1.242.954-2.48m-4.85,1.451c.389,0,.886-.425,1.807-1.451a8.965,8.965,0,0,0,.071-1.416c0-.708-.284-1.488-.708-1.488-1.064,0-1.594,2.834-1.594,3.579,0,.422.211.776.424.776m5.772,3.153c.884,0,1.875-3.4,1.875-5.525,0-.461-.07-.955-.283-.955-.744,0-1.983,3.5-1.983,5.416,0,.744.178,1.063.391,1.063m-8.673-1.948c1.2,0,2.581-6.514,2.581-7.612,0-.284-.105-.5-.352-.5-1.1,0-2.62,6.2-2.62,7.577,0,.249.071.532.39.532" transform="translate(-21.647 -14.773)" fill="#fff"/>
  <path id="Path_176" data-name="Path 176" d="M45.707,31.427c-1.522,0-1.592,1.843-1.592,5.558-1.132-2.442-3.009-5.062-5.2-5.062-1.486,0-2.053.993-2.053,2.725a6.485,6.485,0,0,0,.107,1.2A1.34,1.34,0,0,1,38.415,35a6.461,6.461,0,0,1,4.567,2.761,23.6,23.6,0,0,0-3.859-.495,4.446,4.446,0,0,0-1.876.319,4.7,4.7,0,0,0-2.408,4.283,7.118,7.118,0,0,0,.108,1.169c1.238-2.762,4.531-4,6.655-4a6.83,6.83,0,0,1,.99.07A5.776,5.776,0,0,0,41.176,43c-.035.567-.248.6-.636.6,0,1.167.921,2.9.921,3.788a.753.753,0,0,1-.354.673c0,1.558,1.557,2.691,1.557,3.682a.834.834,0,0,1-.178.567c.107.638,1.82,1.709,2.042,2.246.272.653.578.764.756.764.6,0,1.556-.71,1.556-1.347a.84.84,0,0,0-.316-.567,5.225,5.225,0,0,1-1.311-2.265.662.662,0,0,1-.681-.521c-.194-.734-.2-2.1-.488-2.915-.461-.1-.673-.283-.673-1.236,0-.462.284-2.267.284-2.906a.5.5,0,0,1-.5-.567c0-1.131,1.134-2.017,1.451-3.468a5.207,5.207,0,0,1,2.513,4.355,9.329,9.329,0,0,1-.248,2.019c1.488-.744,3.718-1.842,3.718-4.072,0-1.311-.6-2.762-4.6-3.329A12.508,12.508,0,0,1,50.1,37.8c2.266,0,3.575.707,3.858,2.3a4.412,4.412,0,0,0,.816-2.264c0-1.736-1.454-2.868-3.294-2.868-2.159,0-4.071,1.132-6.125,2.515.922-1.911,1.557-3.045,2.691-3.045a2.765,2.765,0,0,1,.531.071c-.425-1.557-2.017-3.081-2.868-3.081m59.651,25.525c1.772,0,3.188,2.3,3.188,4.993a11.128,11.128,0,0,1-3.747,8.1c-.037-4.777-5.885-3.254-5.885-6.725a2.351,2.351,0,0,1,2.34-2.479,3.589,3.589,0,0,1,2.657.957,3.133,3.133,0,0,1-.957-2.265,2.407,2.407,0,0,1,2.4-2.586M79.09,20.735a2.645,2.645,0,0,0-1.836-.706,2.864,2.864,0,0,0-2.835,2.089,3.343,3.343,0,0,1-.249-1.205,3.422,3.422,0,0,1,3.652-3.469c2.26,0,3.144,1.2,3.465,1.2.353,0,.708-.356.992-.356.389,0,.389.6.389,1.029,0,1.414-.636,3.858-2.232,4.743a3.606,3.606,0,0,0-1.766-1.7.562.562,0,0,1-.354-.532,1.435,1.435,0,0,1,.773-1.1M73.746,23.32A3.762,3.762,0,0,0,76.472,24.6c.392,0,.853-.105,1.1-.105.318,0,.53.139.53.388a2.223,2.223,0,0,1-.779,1.382,3.565,3.565,0,0,0,1.383.248,4.167,4.167,0,0,0,4.314-4.461,4.741,4.741,0,0,1,.675,2.265c0,3.859-2.835,5.345-5.45,5.345a7.648,7.648,0,0,1-2.767-.567c-.67,0-.635,1.347-1.1,1.311-.816-.141-1.557-1.948-1.557-3.859a5.63,5.63,0,0,1,.919-3.222M43.441.8c0-.213-1.062-.425-2.513-.425-2.3,0-1.983,1.913-3.752,1.913-1.842,0-1.383-1.985-3.719-1.985-1.417,0-2.725.249-2.725.567,0,.425,1.663.249,1.663,1.417,0,1.238-3.575,1.594-3.575,2.337,0,.246.281.352.635.352.78,0,2.018-.353,2.9-.353.5,0,.957.105.957.566,0,.885-1.913,2.48-1.913,3.188,0,.213.176.284.354.284.708,0,1.912-1.807,3.045-1.807,1.876,0,.639,4,1.664,4,1.063,0,.6-3.931,2.124-3.931,1.242,0,2.161,2.726,3.01,2.726a.4.4,0,0,0,.39-.425c0-.742-1.063-2.266-1.063-3.256,0-.6.425-.886.992-.886.813,0,1.912.5,2.511.5.213,0,.426-.07.426-.317,0-.849-3.15-1.77-3.15-2.867S43.441,1.3,43.441.8m8.321,3.612c0,.636,2.23,2.018,3.258,2.018.6,0,.778-.815.778-1.666,0-1.061-.458-1.1-1.381-1.1-1.167,0-2.654.319-2.654.743m3.683,7.009c0-2.124-5.745-5.982-5.807-7.646a.631.631,0,0,1,.2-.439C50.827,2.3,54.913,1.546,54.913.662,54.913.2,54.062.2,53.636.2c-3.291,0-8.106,1.2-8.106,2.372,0,1.205,4.318,4.143,4.318,5.594,0,.39-.248.532-.638.532-1.2,0-3.823-1.453-5.062-1.453-.566,0-.779.389-.779.956,0,1.7,2.018,4.921,2.018,5.876,0,.106-.035.247-.176.247-.638,0-3.645-3.539-4.708-3.539-.389,0-.424.53-.424,1.31v1.2c0,.815-.037,1.309-.424,1.309-.921,0-1.348-2.584-2.23-2.584-.921,0-1.1,4.6-1.983,4.6-1.028,0-.142-5.063-1.134-5.063-1.1,0-2.337,3.364-3.116,3.364-.283,0-.353-.284-.353-.532,0-1.025.6-2.689.6-3.68,0-.5-.141-.78-.565-.78-1.1,0-3.507,1.77-4.426,1.77-.142,0-.318-.071-.318-.213,0-.849,3.858-3.54,3.858-4.743,0-1.17-5.312-.389-5.312-1.736,0-1.131,3.791-2.3,3.791-3.468,0-1.029-4.5-1.488-6.231-1.488-2.091,0-3.221.246-3.221.849,0,.921,4.744,1.205,4.744,2.018,0,.779-4.921,2.867-4.921,4.071,0,1.063,6.937.071,6.937,1.17,0,1.2-6.052,6.406-6.052,8.141,0,.39.284.566.671.566,1.842,0,6.619-3.5,7.93-3.5.461,0,.5.565.5,1.06,0,.922-.319,2.337-.319,3.365,0,.815.213,1.381.92,1.381,1.311,0,2.515-2.23,3.4-2.23,1.132,0,.462,6.549,2.161,6.549,1.451,0,2.053-7.081,2.972-7.081s1.667,2.054,2.515,2.054c1.062,0,.567-3.575,1.7-3.575,1.238,0,4.777,4.248,6.372,4.248.494,0,.67-.39.67-.888,0-1.875-2.618-6.122-2.618-7.468,0-.354.1-.461.494-.461,1.383,0,5.418,1.912,7.33,1.912.638,0,1.029-.354,1.029-.815M23.12,9.372c0,.708-2.689,3.079-3.644,3.079-.354,0-.461-.424-.461-.813a3.142,3.142,0,0,1,.708-2.018,3.952,3.952,0,0,1,2.335-.635c.494,0,1.061.1,1.061.388m26.022,3.646c0,1.239,4.426,7.292,5.275,7.292.71,0,1.238-1.238,1.238-2.3a1.445,1.445,0,0,0-.21-.778c-.638-.884-5.134-4.425-6.126-4.425a.2.2,0,0,0-.178.212M105.994,2.292a.876.876,0,1,0,.257-.629.876.876,0,0,0-.257.629m-5.77,7.823c0-2.515-6.013-3.152-6.013-3.718,0-.459,3.359-1.24,5.093-1.275-2.654-3.4-6.439-3.043-6.439-3.645,0-.356,2.834-1.063,5.45-1.063,2.194,0,4.248.5,4.248,2.159,0,.922-.743,1.878-.743,3.294a1.308,1.308,0,0,0,1.417,1.451c1.1,0,1.347-1.169,1.347-2.408,0-1.025-.178-1.805-.178-2.3A2.355,2.355,0,0,1,106.88.132c1.205,0,1.488.53,3.259.53a2.7,2.7,0,0,0-1.31,2.089c0,1.488.957,2.515.957,5.559,0,5.591-5.239,7.575-11.649,7.575a36.649,36.649,0,0,1-5.485-.424c-.283-.035-.354-.107-.354-.283,0-.462,2.516-.71,2.516-2.974a17.711,17.711,0,0,0-.284-2.054.28.28,0,0,1,.284-.283c.532,0,1.6,2.053,3.572,2.053a1.686,1.686,0,0,0,1.839-1.805m5.98-3.575c0,3.15-2.294,5.558-6.443,6.23.462.034.888.034,1.313.034,4.847,0,6.619-2.194,6.619-4.034a2.25,2.25,0,0,0-1.489-2.23m-2.436,45.632a21.473,21.473,0,0,1,2.438-4.921c-1.161-.6-4.244-1.876-4.244-3.966,0-2.442,3.047-4.353,3.677-4.353.283,0,.354.247.354.708,0,1.274-.6,3.327-.6,4.425,0,.991.638,1.948,1.205,1.948.6,0,2.267-2.124,2.267-4.213a4.773,4.773,0,0,0-4.314-4.887c-.958,0-2.693,1.558-6.767,1.558-7.609,0-9.346-7.538-9.346-10.832,0-.141.035-.178.07-.178a5.4,5.4,0,0,0,3.33.922c1.24,0,2.374-.319,4.182-.319,4.241,0,6.12,2.94,8.742,6.69,1.586.991,5.379,2.584,5.379,7.081,0,3.966-4.218,6.161-5.237,10.408,1.622-.175,2.58-3.08,4.243-3.08.851,0,1.242.673,1.242,1.737a7.7,7.7,0,0,1-2.588,5.345,2.288,2.288,0,0,0,.037-.532c0-.99-.389-2.4-1.524-2.4-1.764,0-2.332,1.91-3.323,3.5-1.027-3.609-2.41-6.868-4.886-8.851-2.508-2.018-6.833-.921-6.833-4.6,0-.992.638-2.407.638-3.54a1.668,1.668,0,0,0-.284-1.027c3.4,1.276,2.2,3.54,4.288,5.877,1.3,1.488,4.916,2.9,7.008,9.028a6.9,6.9,0,0,0,.07-.956c0-5.24-6.936-10.374-7.537-12.5,4.029.461,4.737,1.452,6.651,6.763.389,1.1,1.666,3.825,1.666,5.169M102.848,35c0-.743-1.879-.813-2.056-2.9-.037-.319-.141-.884-.531-.884-.638,0-.143,1.947-.851,1.947-1.627,0-2.157-3.186-2.761-3.186-.143,0-.311.107-.311.532,0,.389.071.638.071,1.1s-.107.779-.532.779c-.957,0-1.807-2.229-2.622-2.229a.321.321,0,0,0-.354.283c0,.425.708,1.2.708,1.594,0,.849-2.3.389-2.3,1.1,0,.319.318.424.743.424.744,0,1.915-.317,2.516-.317.354,0,.886.071.886.53,0,.495-1.275,1.132-1.275,1.592a.356.356,0,0,0,.389.317c.957,0,2.65-1.662,3.854-1.662.211,0,.742.106.742.425,0,.459-1.2,1.272-1.2,1.945a.358.358,0,0,0,.32.39c.633,0,1.484-1.664,2.689-1.664.462,0,1.135.178,1.489.178.285,0,.391-.178.391-.284" transform="translate(-8.255 -0.027)" fill="#fff"/>
  <path id="Path_177" data-name="Path 177" d="M100.111,13.769c.569,0,.675,1.382.783,2.195.07.426.142.461.32.461.425,0,1.1-1.629,1.551-1.629.672,0,2.48,1.876,5.491,1.876a8.065,8.065,0,0,0,8.321-8.318c0-5.132-3.615-8.142-8.6-8.142-2.371,0-4.11,1.169-5.031,1.169C102.381,1.415,101.53,0,101.1,0c-.176,0-.354.352-.354.954,0,.391,0,1.629-.425,1.629-.853,0-4.144-2.442-4.144-1.557,0,.815,2.194,3.292,2.194,3.929s-2.159,1.24-2.159,1.665c0,.778,2.3.919,2.3,1.912S96.11,10.3,96.11,11.046c0,.6,2.408.176,2.408.919s-1.77,3.221-1.77,3.927c0,.178.035.178.176.178.671,0,2.689-2.3,3.186-2.3m1.03-5.8c0-.389-1.384-1.132-1.384-1.558,0-.07.07-.106.178-.106.39,0,1.063.143,1.6.143.462,0,.531-1.983.879-1.983.246,0,.672,1.877,1.064,1.877.458,0,1.308-.532,1.663-.532.071,0,.142.035.142.107,0,.247-.886,1.2-.886,1.486,0,.319,1.984.708,1.984.992,0,.354-2.019.319-2.019.638,0,.246.744,1.238.744,1.556a.1.1,0,0,1-.107.108c-.284,0-1.382-.5-1.7-.5-.389,0-1.019,1.451-1.338,1.451-.107,0-.176-.142-.176-.319l-.073-1.416c0-.142-.068-.283-.246-.283-.425,0-1.242-.037-1.49-.037-.178,0-.248-.035-.248-.1,0-.284,1.419-1.275,1.419-1.522m6.9,6.726c-2.48,0-4.111-1.238-4.111-1.876a.493.493,0,0,1,.5-.53c.779,0,2.48,1.2,3.047,1.2.141,0,.247-.07.247-.283,0-.638-.6-1.7-.6-2.229,0-.142.106-.248.319-.248.955,0,2.375.39,3.12.39.246,0,.316-.143.316-.284,0-.779-2.3-2.3-2.3-2.762,0-.425,2.862-1.063,2.862-1.734,0-.71-3.891-.214-3.891-.886,0-.5.744-1.346.744-1.735,0-.178-.141-.247-.389-.247a27.936,27.936,0,0,1-2.727.673c-.356,0-.781-.071-.781-.567,0-.816,1.383-1.7,3.543-1.7,3.5,0,5.593,2.408,5.593,6.444,0,5.1-3.573,6.373-5.486,6.373M84.074,75.937a1.626,1.626,0,0,1-.39,1.027A2.6,2.6,0,0,0,81.7,75.9c-3.645,0-2.266,5.275-6.16,5.275a18.523,18.523,0,0,1-2.372-.213c-.247,0-.389.107-.389.319,0,.922,1.31,3.186,4.957,3.186s7.151-2.229,7.151-4.994a3.7,3.7,0,0,0-.319-1.448,1.038,1.038,0,0,1,.816-.354c.565,0,.884.638,1.415.638a.968.968,0,0,0,.992-.992,1.071,1.071,0,0,0-.673-.994,1.216,1.216,0,0,0,.5-.955,1.123,1.123,0,0,0-1.134-1.166,1.01,1.01,0,0,0-.778.351c-.07-.635-.424-1.237-1.1-1.237a.914.914,0,0,0-.922.993c0,.562.39,1.024.39,1.625" transform="translate(-31.893 0)" fill="#fff"/>
  <path id="Path_178" data-name="Path 178" d="M66.211,128.842c-1.062,0-2.656-1.134-2.656-1.772a.86.86,0,0,1,.884-.816c.886,0,2.478,1.1,2.478,2.019,0,.249-.178.569-.706.569m-9.878-7.93c2.832.705,4.248,2.227,4.531,4.036a7.892,7.892,0,0,0,1.31,3.858,6.113,6.113,0,0,0,4.143,1.875c1.275,0,2.3-.421,2.3-1.59,0-1.275-1.734-4.142-4.283-4.142-.246,0-.565.037-.919.037a1.708,1.708,0,0,1-1.064-.319c-.565-.5-.742-3.153-1.805-4.745a4.453,4.453,0,0,0-4.175-2.267c-1.238,0-2.621.673-2.621,1.665,0,.6.319,1.026,2.585,1.594" transform="translate(-23.553 -51.558)" fill="#fff"/>
  <path id="Path_179" data-name="Path 179" d="M65.254,97.453c0-1.593-3.294-1.627-3.294-4.036a5.527,5.527,0,0,1,1.17-2.727,3.839,3.839,0,0,0,2.656,3.4c3.149,1.167,3.575,2.937,3.575,4.815,0,3.188-2.23,7.152-7.965,7.152a8.061,8.061,0,0,1-7.9-7.576c0-.957.247-2.02.849-2.02.531,0,.71.424,1.132.849,1.6,1.594,3.329,2.018,5.844,2.018,2.265,0,3.929-.919,3.929-1.876M65.4,100c-1.214.556-1.7.461-1.7,1.7,0,.458-.107,1.058-.107,1.377,0,.424.071.674.565.674,1.276,0,3.294-2.159,3.294-4,0-.5-.284-.706-.6-.706-.284,0-.6.565-1.451.954M54.1,82.125c0-2.267,5.382-3.47,5.382-6.267a4.63,4.63,0,0,0-.5-1.876c1.876,1.027,3.256,2.764,3.256,4.178,0,2.444-2.548,3.575-2.548,5.1,0,1.77,2.726,2.053,2.726,4.248,0,1.8-2.586,3.893-2.586,6.23a3.535,3.535,0,0,0,3.223,3.538,8.129,8.129,0,0,1-1.805.249c-3.577,0-7.258-2.937-7.258-6.444a6.04,6.04,0,0,1,1.876-4.354,5.059,5.059,0,0,0,2.619,1.416c.567,0,.816-.283.816-.708,0-1.311-5.205-2.513-5.205-5.311M33.567,99.613a2.31,2.31,0,0,0,2.549,1.984,2.936,2.936,0,0,0,1.17-.354,2.179,2.179,0,0,0,2.518,1.692,2.244,2.244,0,0,0,2.049-2.508,2.556,2.556,0,0,0-.212-.815s.173-.017.3-.043a2.357,2.357,0,0,0,2.034-2.507A2.3,2.3,0,0,0,41.5,94.99a2.221,2.221,0,0,0-1.172.481,2.384,2.384,0,0,0-2.681-1.758A2.4,2.4,0,0,0,35.9,96.992l-.351.052a2.384,2.384,0,0,0-1.986,2.569m6.616-1.393a1.346,1.346,0,1,1-1.493-1.181,1.346,1.346,0,0,1,1.493,1.181" transform="translate(-14.702 -32.42)" fill="#fff"/>
</svg>
