<svg xmlns="http://www.w3.org/2000/svg" width="184.506" height="64.176" viewBox="0 0 184.506 64.176">
  <path id="ziggo" d="M59.507,370.594a3.783,3.783,0,0,1,0,5.349,14.276,14.276,0,0,1-10.131,4.211H14.435A14.29,14.29,0,0,1,.143,365.861V330.918a14.29,14.29,0,0,1,14.292-14.29H49.376a14.236,14.236,0,0,1,5.469,1.084,13.925,13.925,0,0,1,5.212,3.676,3.934,3.934,0,0,1,1.108,2.674,3.782,3.782,0,0,1-6.456,2.674,7.631,7.631,0,0,0-2.717-2.016,6.684,6.684,0,0,0-2.616-.53H14.435a6.736,6.736,0,0,0-6.727,6.727v34.943a6.736,6.736,0,0,0,6.727,6.728H49.376a6.672,6.672,0,0,0,2.616-.53,6.84,6.84,0,0,0,2.166-1.466,3.783,3.783,0,0,1,5.349,0Zm-10.242-4.5c-.136-2.759-2-7.006-6.685-7.564H25.914l19.2-18.383c.811-.774,2.63-3.4,1.335-6.219-1.041-2.269-2.784-3.237-5.829-3.237H16.7c.1,3.173,1.681,6.962,5.887,7.64H36.257l-20.2,18.984a5.4,5.4,0,0,0-1.1,5.661c.96,2.213,2.578,3.117,5.585,3.117H49.265Zm54.722-17.32v14.087a18.088,18.088,0,0,1-5.21,13.356A16.127,16.127,0,0,1,86.912,380.8a16.884,16.884,0,0,1-13.4-6.832c2.377-2.377,5.684-3.822,8.921-1.882a8.841,8.841,0,0,0,4.512,1.217c8.183,0,9.515-7.312,9.515-9.489a18.2,18.2,0,0,1-9.59,2.569h0a18.035,18.035,0,0,1-12.052-4.348L74.771,362a15.732,15.732,0,0,1-5.032-11.642c-.022-.935-.022-3.93,0-4.626a15.572,15.572,0,0,1,5.032-11.563,16.961,16.961,0,0,1,12.1-4.853h0a16.916,16.916,0,0,1,12.855,5.621,3.742,3.742,0,0,1,.848,2.395,3.8,3.8,0,0,1-6.475,2.712,9.7,9.7,0,0,0-13.911-.557,8.26,8.26,0,0,0-2.765,6.289c-.042,1.111-.042,3.472,0,4.538a8.431,8.431,0,0,0,2.752,6.4,9.834,9.834,0,0,0,13.411-.016,8.637,8.637,0,0,0,2.186-3.22,6.206,6.206,0,0,1,3.637-3.953,12.86,12.86,0,0,1,4.578-.757Zm35.739.758a6.2,6.2,0,0,0-3.637,3.953,8.647,8.647,0,0,1-2.188,3.22,9.833,9.833,0,0,1-13.41.016,8.428,8.428,0,0,1-2.752-6.4c-.039-1.067-.039-3.427,0-4.538a8.254,8.254,0,0,1,2.765-6.29,9.7,9.7,0,0,1,13.911.557,3.806,3.806,0,0,0,5.628-5.107,16.92,16.92,0,0,0-12.855-5.621h0a16.961,16.961,0,0,0-12.1,4.853,15.566,15.566,0,0,0-5.032,11.563c-.024.7-.024,3.691,0,4.626A15.731,15.731,0,0,0,115.089,362l.043.038a18.036,18.036,0,0,0,12.053,4.348h0a18.19,18.19,0,0,0,9.589-2.569c0,2.176-1.333,9.489-9.514,9.489a8.844,8.844,0,0,1-4.513-1.217c-3.237-1.939-6.544-.5-8.92,1.882a16.885,16.885,0,0,0,13.4,6.832,16.129,16.129,0,0,0,11.865-4.588,18.087,18.087,0,0,0,5.209-13.356V348.771a12.877,12.877,0,0,0-4.577.759Zm44.906-3.768a15.6,15.6,0,0,0-5.03-11.594,16.967,16.967,0,0,0-12.1-4.853h0a16.965,16.965,0,0,0-12.1,4.853,15.576,15.576,0,0,0-5.031,11.563c-.023.7-.023,3.691,0,4.626A15.741,15.741,0,0,0,155.4,362l.045.038a18.03,18.03,0,0,0,12.052,4.348h0a18.061,18.061,0,0,0,12.054-4.346l.045-.04a15.731,15.731,0,0,0,5.03-11.625c.023-.952.023-3.947,0-4.613M167.5,359.352a9.569,9.569,0,0,1-6.7-2.633,8.427,8.427,0,0,1-2.751-6.4c-.041-1.067-.041-3.427,0-4.538a8.264,8.264,0,0,1,2.765-6.289,9.686,9.686,0,0,1,13.371.008,8.265,8.265,0,0,1,2.762,6.306c.035,1.039.051,3.389,0,4.543a8.412,8.412,0,0,1-2.737,6.359,9.575,9.575,0,0,1-6.714,2.649M63.673,330.689c-3.966.007-7.565,3.333-7.565,6.9v28.5c3.966-.009,7.565-3.333,7.565-6.9Z" transform="translate(-0.143 -316.628)" fill="#fff"/>
</svg>
