<svg xmlns="http://www.w3.org/2000/svg" width="81.864" height="76.324" viewBox="0 0 81.864 76.324">
  <g id="Group_58" data-name="Group 58" transform="translate(-630.399 -3887.272)">
    <g id="Group_55" data-name="Group 55" transform="translate(630.899 3887.772)">
      <line id="Line_80" data-name="Line 80" x2="11.03" transform="translate(69.834 9.055)" fill="none" stroke="#fff" stroke-linecap="round" stroke-linejoin="round" stroke-width="1"/>
      <line id="Line_81" data-name="Line 81" x2="50.376" transform="translate(0 9.055)" fill="none" stroke="#fff" stroke-linecap="round" stroke-linejoin="round" stroke-width="1"/>
      <path id="Path_65" data-name="Path 65" d="M683.136,3896.828a9.056,9.056,0,1,1-9.056-9.056A9.056,9.056,0,0,1,683.136,3896.828Z" transform="translate(-613.948 -3887.772)" fill="none" stroke="#fff" stroke-linejoin="round" stroke-width="1"/>
    </g>
    <g id="Group_56" data-name="Group 56" transform="translate(630.899 3944.983)">
      <line id="Line_82" data-name="Line 82" x2="21.246" transform="translate(59.618 9.057)" fill="none" stroke="#fff" stroke-linecap="round" stroke-linejoin="round" stroke-width="1"/>
      <line id="Line_83" data-name="Line 83" x2="40.16" transform="translate(0 9.057)" fill="none" stroke="#fff" stroke-linecap="round" stroke-linejoin="round" stroke-width="1"/>
      <circle id="Ellipse_8" data-name="Ellipse 8" cx="9.057" cy="9.057" r="9.057" transform="translate(40.86)" fill="none" stroke="#fff" stroke-linejoin="round" stroke-width="1"/>
    </g>
    <g id="Group_57" data-name="Group 57" transform="translate(630.899 3916.377)">
      <line id="Line_84" data-name="Line 84" x1="11.411" transform="translate(0 9.056)" fill="none" stroke="#fff" stroke-linecap="round" stroke-linejoin="round" stroke-width="1"/>
      <line id="Line_85" data-name="Line 85" x1="49.994" transform="translate(30.87 9.056)" fill="none" stroke="#fff" stroke-linecap="round" stroke-linejoin="round" stroke-width="1"/>
      <path id="Path_66" data-name="Path 66" d="M638.954,3915.938a9.057,9.057,0,1,1,9.057,9.057A9.057,9.057,0,0,1,638.954,3915.938Z" transform="translate(-626.898 -3906.883)" fill="none" stroke="#fff" stroke-linejoin="round" stroke-width="1"/>
    </g>
  </g>
</svg>
