<svg xmlns="http://www.w3.org/2000/svg" width="133.491" height="75.778" viewBox="0 0 133.491 75.778">
  <g id="Group_54" data-name="Group 54" transform="translate(-225.283 -3664.266)">
    <path id="Path_56" data-name="Path 56" d="M246.121,3683.42l2.589-9.283a9.269,9.269,0,0,1,8.37-6.271h22.415" transform="translate(12.884 1.964)" fill="none" stroke="#4A9797" stroke-linejoin="round" stroke-width="1"/>
    <path id="Path_57" data-name="Path 57" d="M237.654,3713.528v-27.892a8.191,8.191,0,0,1,8.167-8.167H302.3v42.061h-9.275" transform="translate(7.52 8.047)" fill="none" stroke="#4A9797" stroke-linejoin="round" stroke-width="1"/>
    <path id="Path_58" data-name="Path 58" d="M315.49,3724.163l-14.051-1.523a9.331,9.331,0,0,1-8.118-9.045V3686a9.336,9.336,0,0,1,8.118-9.049l14.051-1.521Z" transform="translate(42.784 6.753)" fill="none" stroke="#4A9797" stroke-linecap="round" stroke-linejoin="round" stroke-width="1"/>
    <path id="Path_59" data-name="Path 59" d="M225.783,3677.66l6.625,2.086a4.752,4.752,0,0,1,3.118,4.247v7.45a4.755,4.755,0,0,1-3.118,4.247l-6.625,2.086Z" transform="translate(0 8.168)" fill="none" stroke="#4A9797" stroke-linecap="round" stroke-linejoin="round" stroke-width="1"/>
    <path id="Path_60" data-name="Path 60" d="M309.06,3664.766H266.589v9.8H309.06a4.9,4.9,0,1,0,0-9.8Z" transform="translate(25.85)" fill="none" stroke="#4A9797" stroke-linecap="round" stroke-linejoin="round" stroke-width="1"/>
    <g id="Group_48" data-name="Group 48" transform="translate(320.021 3699.319)">
      <line id="Line_72" data-name="Line 72" x2="5.717" stroke-width="1" stroke="#4A9797" stroke-linecap="round" stroke-linejoin="round" fill="none"/>
      <line id="Line_73" data-name="Line 73" x2="5.717" transform="translate(0 7.228)" fill="none" stroke="#4A9797" stroke-linecap="round" stroke-linejoin="round" stroke-width="1"/>
      <line id="Line_74" data-name="Line 74" x2="5.717" transform="translate(0 14.456)" fill="none" stroke="#4A9797" stroke-linecap="round" stroke-linejoin="round" stroke-width="1"/>
    </g>
    <line id="Line_75" data-name="Line 75" x2="10.414" transform="translate(235.303 3690.822)" fill="none" stroke="#4A9797" stroke-linecap="round" stroke-linejoin="round" stroke-width="1"/>
    <line id="Line_76" data-name="Line 76" x2="10.005" transform="translate(235.098 3701.602)" fill="none" stroke="#4A9797" stroke-linecap="round" stroke-linejoin="round" stroke-width="1"/>
    <path id="Path_61" data-name="Path 61" d="M235.406,3717.487h10.3c4.3-8.029,11.085-8.878,17.144-8.878,6.805,0,14.468-.31,20.747,8.878l6.735-.041-5.1-14.594a7.637,7.637,0,0,0-1.9-2.313,6.561,6.561,0,0,0-3.4-.954H235.285Z" transform="translate(6.019 22.057)" fill="none" stroke="#4A9797" stroke-linejoin="round" stroke-width="1"/>
    <g id="Group_50" data-name="Group 50" transform="translate(285.466 3695.428)">
      <g id="Group_49" data-name="Group 49">
        <path id="Path_62" data-name="Path 62" d="M264.862,3684.81a1.271,1.271,0,1,1-1.269-1.272A1.267,1.267,0,0,1,264.862,3684.81Z" transform="translate(-262.32 -3683.537)" fill="#475257" stroke="#4A9797" stroke-miterlimit="10" stroke-width="1"/>
      </g>
    </g>
    <g id="Group_52" data-name="Group 52" transform="translate(296.597 3695.428)">
      <g id="Group_51" data-name="Group 51">
        <path id="Path_63" data-name="Path 63" d="M271.677,3684.81a1.272,1.272,0,1,1-1.269-1.272A1.268,1.268,0,0,1,271.677,3684.81Z" transform="translate(-269.134 -3683.537)" fill="#475257" stroke="#4A9797" stroke-miterlimit="10" stroke-width="1"/>
      </g>
    </g>
    <line id="Line_77" data-name="Line 77" y1="10.825" transform="translate(303.479 3674.632)" fill="none" stroke="#4A9797" stroke-linecap="round" stroke-linejoin="round" stroke-width="1"/>
    <path id="Path_64" data-name="Path 64" d="M237.615,3683.932h29.843v15.657H237.615" transform="translate(7.495 12.142)" fill="none" stroke="#4A9797" stroke-linejoin="round" stroke-width="1"/>
    <g id="Group_53" data-name="Group 53" transform="translate(309.78 3691.506)">
      <line id="Line_78" data-name="Line 78" x2="18.581" fill="none" stroke="#4A9797" stroke-linejoin="round" stroke-width="1"/>
      <line id="Line_79" data-name="Line 79" x2="26.181" transform="translate(0.051 30.081)" fill="none" stroke="#4A9797" stroke-linejoin="round" stroke-width="1"/>
    </g>
  </g>
</svg>
