<svg xmlns="http://www.w3.org/2000/svg" width="123.755" height="72.23" viewBox="0 0 123.755 72.23">
  <g id="qtie_logo_XD" data-name="qtie logo XD" transform="translate(0 -0.003)">
    <path id="Path_1" data-name="Path 1" d="M215.05,636.792l6.439,2.592c.048.019.048.079,0,.127l-6.224,6.309c-.062.063-.158.055-.16-.013l-.215-8.9a.132.132,0,0,1,.16-.117Z" transform="translate(-194.124 -579.168)" fill="#fff"/>
    <path id="Path_2" data-name="Path 2" d="M253.75,624.982l6.439,2.592c.048.019.048.079,0,.125l-6.224,6.309c-.062.063-.158.056-.16-.013l-.215-8.9a.133.133,0,0,1,.16-.117Z" transform="translate(-227.251 -569.059)" fill="#fff"/>
    <path id="Path_3" data-name="Path 3" d="M185.672,599.343c-6.138,1.872-11.132-1.591-11.132-7.729s4.994-12.66,11.132-14.537,11.134,1.584,11.134,7.729S191.812,597.465,185.672,599.343Zm0-20.457c-5.141,1.571-9.324,7.034-9.324,12.175s4.176,8.045,9.324,6.474S195,590.5,195,585.359,190.814,577.313,185.672,578.886Z" transform="translate(-159.585 -527.618)" fill="#5c5c5c"/>
    <path id="Path_4" data-name="Path 4" d="M84.881,433.3a5.837,5.837,0,0,0-5.391-.73,12.278,12.278,0,0,0-6.219,4.473,11.371,11.371,0,0,0-2.572,7,6.185,6.185,0,0,0,2.572,5.44,6.861,6.861,0,0,0,6.219.678,10.645,10.645,0,0,0,5.391-4.042v7.323l3.213-.984V431.22l-3.213.976Zm0,7.6a7.332,7.332,0,0,1-1.5,3.177,7.683,7.683,0,0,1-3.888,2.8,4.335,4.335,0,0,1-3.906-.419,3.874,3.874,0,0,1-1.614-3.407,7.1,7.1,0,0,1,1.614-4.387,7.694,7.694,0,0,1,3.9-2.814,4.266,4.266,0,0,1,3.888.432,3.479,3.479,0,0,1,1.5,2.255Z" transform="translate(-70.7 -403.204)" fill="#fff"/>
    <path id="Path_5" data-name="Path 5" d="M347.861,337.8a3.183,3.183,0,0,0,1.591-1.135,2.88,2.88,0,0,0,.664-1.794,1.555,1.555,0,0,0-.664-1.388,1.776,1.776,0,0,0-1.591-.157,3.155,3.155,0,0,0-1.576,1.131,2.881,2.881,0,0,0-.665,1.794,1.554,1.554,0,0,0,.665,1.388A1.756,1.756,0,0,0,347.861,337.8Z" transform="translate(-306.027 -319.308)" fill="#fff"/>
    <path id="Path_6" data-name="Path 6" d="M279.43,156.094l3.2-.978v-15.9l-3.2.978Z" transform="translate(-239.188 -119.168)" fill="#fff"/>
    <path id="Path_7" data-name="Path 7" d="M413.575,342.431a5.843,5.843,0,0,0-4.032,3.952v-1.853l-3.213.982v15.895l3.213-.982V348.792a5.423,5.423,0,0,1,.72-1.179,4.818,4.818,0,0,1,2.379-1.685,2.66,2.66,0,0,1,2.394.249,2.319,2.319,0,0,1,1.008,2.048v10.212l3.2-.978V347.124a5.382,5.382,0,0,0-1.568-4.116A4.019,4.019,0,0,0,413.575,342.431Z" transform="translate(-357.994 -326.956)" fill="#fff"/>
    <path id="Path_8" data-name="Path 8" d="M454.227,62.017l3.2-.978v-12.7l2.857-.874v-3.2l-2.857.874V39.18l-3.2.978V46.12l-2.857.874v3.2l2.857-.873Z" transform="translate(-386.366 -33.535)" fill="#fff"/>
    <path id="Path_9" data-name="Path 9" d="M760.907,242.785V253l3.2-.978V241.684a5.385,5.385,0,0,0-1.568-4.116,4.019,4.019,0,0,0-4.1-.576,5.836,5.836,0,0,0-4.032,3.952v-1.855l-3.213.984v15.9l3.213-.982V243.353a5.546,5.546,0,0,1,.72-1.18,4.807,4.807,0,0,1,2.385-1.684,2.666,2.666,0,0,1,2.4.248A2.307,2.307,0,0,1,760.907,242.785Z" transform="translate(-653.189 -236.7)" fill="#fff"/>
    <path id="Path_10" data-name="Path 10" d="M364.32,504.281a5.8,5.8,0,0,0-5.392-.746,12.265,12.265,0,0,0-6.216,4.48,11.4,11.4,0,0,0-2.572,7.012,6.189,6.189,0,0,0,2.572,5.44,6.847,6.847,0,0,0,6.217.678,10.642,10.642,0,0,0,5.392-4.042v1.977l3.212-.984V493.38l-3.213.982Zm0,7.6a7.371,7.371,0,0,1-1.5,3.161,7.664,7.664,0,0,1-3.888,2.8,4.339,4.339,0,0,1-3.9-.413,3.851,3.851,0,0,1-1.614-3.4,7.1,7.1,0,0,1,1.614-4.387,7.684,7.684,0,0,1,3.9-2.816,4.266,4.266,0,0,1,3.888.432,3.492,3.492,0,0,1,1.5,2.261Z" transform="translate(-309.896 -456.412)" fill="#fff"/>
    <path id="Path_11" data-name="Path 11" d="M582.66,219.684l3.213-.982V193.97l-3.213.982Z" transform="translate(-498.748 -166.033)" fill="#fff"/>
    <path id="Path_12" data-name="Path 12" d="M637.15,203.024l3.214-.982V177.31l-3.214.982Z" transform="translate(-545.39 -151.772)" fill="#fff"/>
    <path id="Path_13" data-name="Path 13" d="M763.544,415.723a1.769,1.769,0,0,0-1.584-.163,3.155,3.155,0,0,0-1.576,1.131,2.87,2.87,0,0,0-.664,1.794,1.555,1.555,0,0,0,.664,1.388,1.767,1.767,0,0,0,1.576.167,3.178,3.178,0,0,0,1.584-1.136,2.881,2.881,0,0,0,.664-1.792A1.554,1.554,0,0,0,763.544,415.723Z" transform="translate(-660.49 -389.705)" fill="#fff"/>
    <path id="Path_14" data-name="Path 14" d="M693.47,238.353l3.2-.976v-15.9l-3.2.978Z" transform="translate(-593.599 -189.581)" fill="#fff"/>
    <path id="Path_15" data-name="Path 15" d="M827.423,429.83q-.618.93-.819,1.208a7.748,7.748,0,0,1-3.907,2.8q-2.117.648-2.921.183l8.419-10.993,1.606-2.114c-.484-.4-.776-.632-.88-.7a7.847,7.847,0,0,0-.758-.464,7.218,7.218,0,0,0-5.473-.212,12.26,12.26,0,0,0-6.21,4.477,11.414,11.414,0,0,0-2.581,7.015,6.174,6.174,0,0,0,2.581,5.437,6.872,6.872,0,0,0,6.219.681,12.3,12.3,0,0,0,6.224-4.483q.524-.687,1.7-2.667Zm-10.225.192a7.136,7.136,0,0,1,1.614-4.394,7.678,7.678,0,0,1,3.888-2.8,4.343,4.343,0,0,1,2.424-.324l-7.506,9.819a3.826,3.826,0,0,1-.422-2.3Z" transform="translate(-706.868 -392.834)" fill="#fff"/>
    <path id="Path_16" data-name="Path 16" d="M156.173,183.861V177.85l-3.213.982v5.884Z" transform="translate(-130.931 -152.235)" fill="#fff"/>
    <path id="Path_17" data-name="Path 17" d="M233.779,394.088v9.547a4.3,4.3,0,0,1-1.008,2.68,4.782,4.782,0,0,1-2.388,1.711,2.809,2.809,0,0,1-2.5-.223,2.328,2.328,0,0,1-1.008-2.057v-1.781l-3.213.733v2.153a4.677,4.677,0,0,0,1.885,4.032q1.838,1.28,4.85.357a9.189,9.189,0,0,0,4.712-3.279,8.661,8.661,0,0,0,1.872-5.174V393.11Z" transform="translate(-201.631 -370.582)" fill="#fff"/>
    <path id="Path_18" data-name="Path 18" d="M514.552,518.553a7.48,7.48,0,0,1-1.44,3.014,7.729,7.729,0,0,1-3.888,2.8,4.341,4.341,0,0,1-3.9-.422,3.849,3.849,0,0,1-1.614-3.392,7.163,7.163,0,0,1,1.614-4.387,7.724,7.724,0,0,1,3.9-2.8,4.289,4.289,0,0,1,3.888.418,3.517,3.517,0,0,1,1.483,2.265v.838l3.213-.855v-7.31l-3.213.982v1.112a5.817,5.817,0,0,0-5.376-.734A12.27,12.27,0,0,0,503,514.553a11.382,11.382,0,0,0-2.572,7A6.162,6.162,0,0,0,503,526.987a6.879,6.879,0,0,0,6.217.671,10.614,10.614,0,0,0,5.376-4.032v1.985l3.213-.982v-6.812Z" transform="translate(-438.542 -469.543)" fill="#fff"/>
    <path id="Path_19" data-name="Path 19" d="M617.527,283.55a7.633,7.633,0,0,1-1.456,3,7.716,7.716,0,0,1-3.9,2.8,4.334,4.334,0,0,1-3.9-.413,3.846,3.846,0,0,1-1.614-3.4,7.1,7.1,0,0,1,1.614-4.387,7.675,7.675,0,0,1,3.9-2.815,4.292,4.292,0,0,1,3.9.432,3.792,3.792,0,0,1,1.6,3.119l3.281-.88a6.148,6.148,0,0,0-2.565-5.287,6.86,6.86,0,0,0-6.217-.678,12.249,12.249,0,0,0-6.211,4.477,11.4,11.4,0,0,0-2.579,7.015,6.173,6.173,0,0,0,2.579,5.437,6.872,6.872,0,0,0,6.211.681,12.305,12.305,0,0,0,6.217-4.482,11.954,11.954,0,0,0,2.434-5.376Z" transform="translate(-526.666 -269.151)" fill="#fff"/>
    <path id="Path_20" data-name="Path 20" d="M207.154,629.29l6.439,2.592c.046.019.046.079,0,.127l-6.224,6.311c-.063.063-.158.055-.16-.013L207,629.4a.134.134,0,0,1,.154-.114Z" transform="translate(-187.371 -572.747)" fill="#fff"/>
    <path id="Path_21" data-name="Path 21" d="M245.8,617.462l6.439,2.592c.046.019.046.078,0,.125l-6.224,6.309c-.063.063-.158.056-.16-.013l-.215-8.9a.132.132,0,0,1,.16-.117Z" transform="translate(-220.446 -562.622)" fill="#fff"/>
    <path id="Path_22" data-name="Path 22" d="M177.714,591.842c-6.139,1.872-11.134-1.584-11.134-7.728s4.994-12.66,11.134-14.537,11.132,1.584,11.132,7.729S183.852,589.965,177.714,591.842Zm0-20.45c-5.141,1.571-9.325,7.034-9.325,12.175s4.184,8.045,9.325,6.474,9.324-7.034,9.324-12.175-4.182-8.052-9.324-6.479Z" transform="translate(-152.772 -521.199)" fill="#fff"/>
  </g>
</svg>
