<svg xmlns="http://www.w3.org/2000/svg" width="36.002" height="36.002" viewBox="0 0 36.002 36.002">
  <g id="Group_11" data-name="Group 11" transform="translate(-999.071 -755.993)">
    <g id="Group_9" data-name="Group 9" transform="translate(999.573 765.172)">
      <path id="Path_29" data-name="Path 29" d="M1023.577,778.783c1.418,1.79,3.542,5.275,1.42,8.1a8.1,8.1,0,0,1-3.354,2.136,3.2,3.2,0,0,0-2.192,3.022,8.607,8.607,0,0,1-3.133,6.738s-5.057,4.463-12.556-2.8l-.058-.059c-7.228-7.483-2.775-12.531-2.775-12.531a8.6,8.6,0,0,1,6.738-3.133,3.2,3.2,0,0,0,3.022-2.191,8.094,8.094,0,0,1,2.134-3.354c2-1.5,4.321-.88,6.145.112" transform="translate(-999.573 -773.818)" fill="none" stroke="#fff" stroke-miterlimit="10" stroke-width="1"/>
    </g>
    <line id="Line_46" data-name="Line 46" x2="5.99" y2="5.988" transform="translate(1006.018 779.059)" fill="none" stroke="#fff" stroke-linecap="round" stroke-miterlimit="10" stroke-width="1"/>
    <path id="Path_30" data-name="Path 30" d="M1034.03,775.426l10.738-10.739.717.718,5.093-4.779a6.524,6.524,0,0,0-1.612-2.8,4.322,4.322,0,0,0-2.523-1.33l-4.777,5.094.717.716-10.739,10.739" transform="translate(-16.006 0)" fill="none" stroke="#fff" stroke-linecap="round" stroke-linejoin="round" stroke-width="1"/>
    <line id="Line_47" data-name="Line 47" x2="0.805" y2="0.805" transform="translate(1028.205 756.976)" fill="none" stroke="#fff" stroke-linecap="round" stroke-miterlimit="10" stroke-width="1"/>
    <line id="Line_48" data-name="Line 48" x2="0.805" y2="0.804" transform="translate(1026.561 758.752)" fill="none" stroke="#fff" stroke-linecap="round" stroke-miterlimit="10" stroke-width="1"/>
    <g id="Group_10" data-name="Group 10" transform="translate(1031.51 762.056)">
      <line id="Line_49" data-name="Line 49" x1="0.805" y1="0.805" transform="translate(1.776)" fill="none" stroke="#fff" stroke-linecap="round" stroke-miterlimit="10" stroke-width="1"/>
      <line id="Line_50" data-name="Line 50" x1="0.805" y1="0.805" transform="translate(0 1.644)" fill="none" stroke="#fff" stroke-linecap="round" stroke-miterlimit="10" stroke-width="1"/>
    </g>
    <path id="Path_31" data-name="Path 31" d="M1028.977,795.051a3.294,3.294,0,1,1,0-4.659A3.292,3.292,0,0,1,1028.977,795.051Z" transform="translate(-11.868 -16.435)" fill="none" stroke="#fff" stroke-linecap="round" stroke-miterlimit="10" stroke-width="1"/>
  </g>
</svg>
