<svg xmlns="http://www.w3.org/2000/svg" width="30.997" height="30.997" viewBox="0 0 30.997 30.997">
  <g id="Group_100" data-name="Group 100" transform="translate(-999.072 -755.993)">
    <g id="Group_9" data-name="Group 9" transform="translate(999.573 763.931)">
      <path id="Path_29" data-name="Path 29" d="M1020.145,778.073c1.215,1.534,3.036,4.52,1.217,6.945a6.941,6.941,0,0,1-2.874,1.83,2.744,2.744,0,0,0-1.878,2.59,7.377,7.377,0,0,1-2.685,5.775s-4.334,3.824-10.76-2.4l-.049-.05c-6.194-6.413-2.378-10.739-2.378-10.739a7.375,7.375,0,0,1,5.775-2.685,2.744,2.744,0,0,0,2.59-1.878,6.937,6.937,0,0,1,1.829-2.874c1.713-1.284,3.7-.754,5.266.1" transform="translate(-999.573 -773.819)" fill="none" stroke="#fff" stroke-miterlimit="10" stroke-width="1"/>
    </g>
    <line id="Line_46" data-name="Line 46" x2="5.133" y2="5.132" transform="translate(1005.097 775.832)" fill="none" stroke="#fff" stroke-linecap="round" stroke-miterlimit="10" stroke-width="1"/>
    <path id="Path_30" data-name="Path 30" d="M1033.689,772.719l9.2-9.2.615.616,4.365-4.1a5.594,5.594,0,0,0-1.381-2.4,3.7,3.7,0,0,0-2.162-1.14l-4.094,4.366.615.614-9.2,9.2" transform="translate(-18.303 0)" fill="none" stroke="#fff" stroke-linecap="round" stroke-linejoin="round" stroke-width="1"/>
    <line id="Line_47" data-name="Line 47" x2="0.69" y2="0.69" transform="translate(1024.111 756.907)" fill="none" stroke="#fff" stroke-linecap="round" stroke-miterlimit="10" stroke-width="1"/>
    <line id="Line_48" data-name="Line 48" x2="0.69" y2="0.689" transform="translate(1022.701 758.429)" fill="none" stroke="#fff" stroke-linecap="round" stroke-miterlimit="10" stroke-width="1"/>
    <g id="Group_10" data-name="Group 10" transform="translate(1026.943 761.261)">
      <line id="Line_49" data-name="Line 49" x1="0.69" y1="0.69" transform="translate(1.522)" fill="none" stroke="#fff" stroke-linecap="round" stroke-miterlimit="10" stroke-width="1"/>
      <line id="Line_50" data-name="Line 50" x1="0.69" y1="0.69" transform="translate(0 1.409)" fill="none" stroke="#fff" stroke-linecap="round" stroke-miterlimit="10" stroke-width="1"/>
    </g>
    <path id="Path_31" data-name="Path 31" d="M1028.173,794.247a2.823,2.823,0,1,1,0-3.993A2.821,2.821,0,0,1,1028.173,794.247Z" transform="translate(-13.571 -18.795)" fill="none" stroke="#fff" stroke-linecap="round" stroke-miterlimit="10" stroke-width="1"/>
  </g>
</svg>
