<svg xmlns="http://www.w3.org/2000/svg" width="30.996" height="25.644" viewBox="0 0 30.996 25.644">
  <g id="Group_105" data-name="Group 105" transform="translate(-486.855 -6188.276)">
    <g id="Group_39" data-name="Group 39" transform="translate(492.449 6201.3)">
      <g id="Group_34" data-name="Group 34">
        <g id="Group_33" data-name="Group 33">
          <path id="Path_51" data-name="Path 51" d="M499.921,6218.368a.333.333,0,1,1-.333-.334A.332.332,0,0,1,499.921,6218.368Z" transform="translate(-499.255 -6218.034)" fill="#475257" stroke="#fff" stroke-miterlimit="10" stroke-width="1"/>
        </g>
      </g>
      <g id="Group_36" data-name="Group 36" transform="translate(3.37)">
        <g id="Group_35" data-name="Group 35">
          <path id="Path_52" data-name="Path 52" d="M507.8,6218.368a.334.334,0,1,1-.333-.334A.333.333,0,0,1,507.8,6218.368Z" transform="translate(-507.129 -6218.034)" fill="#475257" stroke="#fff" stroke-miterlimit="10" stroke-width="1"/>
        </g>
      </g>
      <g id="Group_38" data-name="Group 38" transform="translate(6.742)">
        <g id="Group_37" data-name="Group 37">
          <path id="Path_53" data-name="Path 53" d="M515.672,6218.368a.334.334,0,1,1-.333-.334A.333.333,0,0,1,515.672,6218.368Z" transform="translate(-515.005 -6218.034)" fill="#475257" stroke="#fff" stroke-miterlimit="10" stroke-width="1"/>
        </g>
      </g>
    </g>
    <path id="Path_54" data-name="Path 54" d="M523.45,6202.139h2.471l4.38,5.083v-5.083h1.184a2.433,2.433,0,0,0,2.427-2.427v-8.51a2.434,2.434,0,0,0-2.427-2.427H518.737a2.434,2.434,0,0,0-2.427,2.427v1.886" transform="translate(-16.561 0)" fill="none" stroke="#fff" stroke-linejoin="round" stroke-width="1"/>
    <path id="Path_55" data-name="Path 55" d="M490.966,6221.7v-5.082h-1.184a2.434,2.434,0,0,1-2.427-2.427v-8.51a2.434,2.434,0,0,1,2.427-2.427H502.53a2.434,2.434,0,0,1,2.427,2.427v8.51a2.434,2.434,0,0,1-2.427,2.427h-7.184Z" transform="translate(0 -8.282)" fill="none" stroke="#fff" stroke-linecap="round" stroke-linejoin="round" stroke-width="1"/>
    <g id="Group_41" data-name="Group 41" transform="translate(508.035 6195.097)">
      <g id="Group_40" data-name="Group 40">
        <circle id="Ellipse_6" data-name="Ellipse 6" cx="0.334" cy="0.334" r="0.334" fill="#475257" stroke="#fff" stroke-miterlimit="10" stroke-width="1"/>
      </g>
    </g>
    <g id="Group_43" data-name="Group 43" transform="translate(511.406 6195.097)">
      <g id="Group_42" data-name="Group 42" transform="translate(0)">
        <circle id="Ellipse_7" data-name="Ellipse 7" cx="0.334" cy="0.334" r="0.334" fill="#475257" stroke="#fff" stroke-miterlimit="10" stroke-width="1"/>
      </g>
    </g>
  </g>
</svg>
