<svg xmlns="http://www.w3.org/2000/svg" width="36" height="29.754" viewBox="0 0 36 29.754">
  <g id="Group_44" data-name="Group 44" transform="translate(-486.855 -6188.276)">
    <g id="Group_39" data-name="Group 39" transform="translate(493.298 6203.389)">
      <g id="Group_34" data-name="Group 34">
        <g id="Group_33" data-name="Group 33">
          <path id="Path_51" data-name="Path 51" d="M500.033,6218.424a.389.389,0,1,1-.388-.39A.387.387,0,0,1,500.033,6218.424Z" transform="translate(-499.255 -6218.034)" fill="#475257" stroke="#fff" stroke-miterlimit="10" stroke-width="1"/>
        </g>
      </g>
      <g id="Group_36" data-name="Group 36" transform="translate(3.933)">
        <g id="Group_35" data-name="Group 35">
          <path id="Path_52" data-name="Path 52" d="M507.908,6218.424a.389.389,0,1,1-.389-.39A.388.388,0,0,1,507.908,6218.424Z" transform="translate(-507.129 -6218.034)" fill="#475257" stroke="#fff" stroke-miterlimit="10" stroke-width="1"/>
        </g>
      </g>
      <g id="Group_38" data-name="Group 38" transform="translate(7.866)">
        <g id="Group_37" data-name="Group 37">
          <path id="Path_53" data-name="Path 53" d="M515.784,6218.424a.389.389,0,1,1-.389-.39A.388.388,0,0,1,515.784,6218.424Z" transform="translate(-515.005 -6218.034)" fill="#475257" stroke="#fff" stroke-miterlimit="10" stroke-width="1"/>
        </g>
      </g>
    </g>
    <path id="Path_54" data-name="Path 54" d="M524.641,6204.368h2.883l5.11,5.931v-5.931h1.382a2.839,2.839,0,0,0,2.831-2.831v-9.93a2.84,2.84,0,0,0-2.831-2.832H519.141a2.84,2.84,0,0,0-2.831,2.832v2.2" transform="translate(-14.493 0)" fill="none" stroke="#fff" stroke-linejoin="round" stroke-width="1"/>
    <path id="Path_55" data-name="Path 55" d="M491.568,6224.777v-5.93h-1.382a2.84,2.84,0,0,1-2.831-2.831v-9.93a2.84,2.84,0,0,1,2.831-2.832h14.876a2.84,2.84,0,0,1,2.831,2.832v9.93a2.84,2.84,0,0,1-2.831,2.831h-8.383Z" transform="translate(0 -7.247)" fill="none" stroke="#fff" stroke-linecap="round" stroke-linejoin="round" stroke-width="1"/>
    <g id="Group_41" data-name="Group 41" transform="translate(511.485 6196.152)">
      <g id="Group_40" data-name="Group 40">
        <circle id="Ellipse_6" data-name="Ellipse 6" cx="0.389" cy="0.389" r="0.389" fill="#475257" stroke="#fff" stroke-miterlimit="10" stroke-width="1"/>
      </g>
    </g>
    <g id="Group_43" data-name="Group 43" transform="translate(515.418 6196.152)">
      <g id="Group_42" data-name="Group 42" transform="translate(0)">
        <circle id="Ellipse_7" data-name="Ellipse 7" cx="0.389" cy="0.389" r="0.389" fill="#475257" stroke="#fff" stroke-miterlimit="10" stroke-width="1"/>
      </g>
    </g>
  </g>
</svg>
