<svg xmlns="http://www.w3.org/2000/svg" width="30.996" height="23.139" viewBox="0 0 30.996 23.139">
  <g id="Group_103" data-name="Group 103" transform="translate(-991.143 -4114.401)">
    <line id="Line_71" data-name="Line 71" x2="25.605" transform="translate(993.838 4121.19)" fill="none" stroke="#fff" stroke-linejoin="round" stroke-width="1"/>
    <g id="Group_21" data-name="Group 21" transform="translate(1003.581 4124.829)">
      <path id="Path_39" data-name="Path 39" d="M1016.785,4135.809l7.333,4.243-7.333,4.24Z" transform="translate(-1016.785 -4135.809)" fill="none" stroke="#fff" stroke-linecap="round" stroke-linejoin="round" stroke-width="1"/>
    </g>
    <g id="Group_28" data-name="Group 28" transform="translate(995.237 4117.828)">
      <g id="Group_23" data-name="Group 23" transform="translate(0 0)">
        <g id="Group_22" data-name="Group 22">
          <path id="Path_40" data-name="Path 40" d="M999.951,4121.437a.37.37,0,1,1-.37-.372A.369.369,0,0,1,999.951,4121.437Z" transform="translate(-999.211 -4121.065)" fill="#475257" stroke="#fff" stroke-miterlimit="10" stroke-width="1"/>
        </g>
      </g>
      <g id="Group_25" data-name="Group 25" transform="translate(3.339 0)">
        <g id="Group_24" data-name="Group 24">
          <path id="Path_41" data-name="Path 41" d="M1006.983,4121.437a.37.37,0,1,1-.37-.372A.368.368,0,0,1,1006.983,4121.437Z" transform="translate(-1006.244 -4121.065)" fill="#475257" stroke="#fff" stroke-miterlimit="10" stroke-width="1"/>
        </g>
      </g>
      <g id="Group_27" data-name="Group 27" transform="translate(6.679 0)">
        <g id="Group_26" data-name="Group 26">
          <path id="Path_42" data-name="Path 42" d="M1014.016,4121.437a.37.37,0,1,1-.369-.372A.368.368,0,0,1,1014.016,4121.437Z" transform="translate(-1013.277 -4121.065)" fill="#475257" stroke="#fff" stroke-miterlimit="10" stroke-width="1"/>
        </g>
      </g>
    </g>
    <path id="Path_43" data-name="Path 43" d="M991.643,4116.8a1.905,1.905,0,0,1,1.9-1.9h26.2a1.906,1.906,0,0,1,1.9,1.9v18.339a1.9,1.9,0,0,1-1.9,1.9h-26.2a1.9,1.9,0,0,1-1.9-1.9Z" transform="translate(0)" fill="none" stroke="#fff" stroke-linejoin="round" stroke-width="1"/>
  </g>
</svg>
