<svg xmlns="http://www.w3.org/2000/svg" width="103.824" height="76.398" viewBox="0 0 103.824 76.398">
  <g id="Group_81" data-name="Group 81" transform="translate(-739.166 -5843.61)">
    <path id="Path_104" data-name="Path 104" d="M835.163,5868.253l7.327-2.5v-6.955l-51.413-14.683-51.411,14.683v6.955l51.411,16.765,36.44-11.881" transform="translate(0 -0.001)" fill="none" stroke="#fff" stroke-linecap="round" stroke-linejoin="round" stroke-width="1"/>
    <path id="Path_105" data-name="Path 105" d="M756.949,5874.483v11.655c6.452,6.134,16.647,10.063,27.846,10.063s21.394-3.93,27.846-10.063v-19.231" transform="translate(5.636 7.435)" fill="none" stroke="#fff" stroke-linecap="round" stroke-linejoin="round" stroke-width="1"/>
    <path id="Path_106" data-name="Path 106" d="M814.721,5893.01v-30.485l-34.407-9.283" transform="translate(13.256 2.977)" fill="none" stroke="#fff" stroke-linecap="round" stroke-linejoin="round" stroke-width="1"/>
    <path id="Path_107" data-name="Path 107" d="M813.2,5889a5.561,5.561,0,1,1-5.56-5.56A5.56,5.56,0,0,1,813.2,5889Z" transform="translate(20.353 12.826)" fill="none" stroke="#fff" stroke-linecap="round" stroke-linejoin="round" stroke-width="1"/>
    <path id="Path_108" data-name="Path 108" d="M805.128,5891.525l-3.069,12.521h11.163l-3.072-12.521" transform="translate(20.348 15.462)" fill="none" stroke="#fff" stroke-linejoin="round" stroke-width="1"/>
  </g>
</svg>
