<svg xmlns="http://www.w3.org/2000/svg" width="80.021" height="76.423" viewBox="0 0 80.021 76.423">
  <g id="Group_94" data-name="Group 94" transform="translate(-495.65 -985.846)">
    <path id="Path_110" data-name="Path 110" d="M561.953,1032.921a7.365,7.365,0,0,1-6.924,4.665H510.282" transform="translate(6.58 20.933)" fill="none" stroke="#fff" stroke-miterlimit="10" stroke-width="1"/>
    <path id="Path_111" data-name="Path 111" d="M510.626,1016.884c4.277-1.271,20.245-7.228,20.245-25.733a5.232,5.232,0,0,1,5.551-4.7s5.635-1.232,6.312,5.873c0,0,1.466,12.4-2.595,20.516h24.336s2.395-.4,3.572,2.775" transform="translate(6.735 0)" fill="none" stroke="#fff" stroke-miterlimit="10" stroke-width="1"/>
    <path id="Path_112" data-name="Path 112" d="M496.822,1006.5h12.135v46.22H495.65" transform="translate(0 9.051)" fill="none" stroke="#fff" stroke-miterlimit="10" stroke-width="1"/>
    <g id="Group_91" data-name="Group 91" transform="translate(566.746 1019.701)">
      <line id="Line_101" data-name="Line 101" x2="2.231" transform="translate(0 5.09)" fill="none" stroke="#fff" stroke-linecap="round" stroke-miterlimit="10" stroke-width="1"/>
      <path id="Path_113" data-name="Path 113" d="M552.515,1009.362a5.991,5.991,0,0,1-6.467,5.09" transform="translate(-544.082 -1009.362)" fill="none" stroke="#fff" stroke-miterlimit="10" stroke-width="1"/>
    </g>
    <g id="Group_92" data-name="Group 92" transform="translate(565.394 1031.078)">
      <line id="Line_102" data-name="Line 102" x2="2.231" transform="translate(0 5.09)" fill="none" stroke="#fff" stroke-linecap="round" stroke-miterlimit="10" stroke-width="1"/>
      <path id="Path_114" data-name="Path 114" d="M551.582,1017.21a5.991,5.991,0,0,1-6.466,5.09" transform="translate(-543.149 -1017.21)" fill="none" stroke="#fff" stroke-miterlimit="10" stroke-width="1"/>
    </g>
    <g id="Group_93" data-name="Group 93" transform="translate(562.6 1042.58)">
      <line id="Line_103" data-name="Line 103" x2="2.231" transform="translate(0 5.089)" fill="none" stroke="#fff" stroke-linecap="round" stroke-miterlimit="10" stroke-width="1"/>
      <path id="Path_115" data-name="Path 115" d="M549.655,1025.144a5.991,5.991,0,0,1-6.466,5.088" transform="translate(-541.222 -1025.144)" fill="none" stroke="#fff" stroke-miterlimit="10" stroke-width="1"/>
    </g>
  </g>
</svg>
